mtllib model_0.mtl
o model_0
v -1.741909384727478 1.9812637567520142 3.363205909729004 
v -1.903947114944458 3.6016428470611572 4.335433006286621 
v -2.957193613052368 2.548396348953247 2.7960731983184814 
v -3.5243263244628906 3.7636806964874268 3.363205909729004 
v 1.7419058084487915 1.9812637567520142 3.363205909729004 
v 1.9039437770843506 3.6016428470611572 4.335433006286621 
v 0.040507722645998 1.7382066249847412 3.606262683868408 
v 0.040507722645998 3.4396047592163086 4.659509181976318 
v -1.741909384727478 1.9812637567520142 3.363205909729004 
v -1.903947114944458 3.6016428470611572 4.335433006286621 
v 2.06598162651062 5.546097755432129 4.659509181976318 
v 0.040507722645998 5.546097755432129 4.983584880828857 
v -2.0659852027893066 5.546097755432129 4.659509181976318 
v -3.5243263244628906 3.7636806964874268 3.363205909729004 
v -3.767383337020874 5.546097755432129 3.606262683868408 
v 1.9039437770843506 7.409533977508545 4.335433006286621 
v 0.040507722645998 7.571571350097656 4.659509181976318 
v -1.903947114944458 7.409533977508545 4.335433006286621 
v -3.5243263244628906 7.247495651245117 3.363205909729004 
v 1.7419058084487915 9.029912948608398 3.363205909729004 
v 0.040507722645998 9.272970199584961 3.606262683868408 
v -1.741909384727478 9.029912948608398 3.363205909729004 
v 2.9571900367736816 2.548396348953247 -3.1183106899261475 
v 3.524322748184204 3.7636806964874268 -3.685443162918091 
v 3.524322748184204 1.9812637567520142 -1.9030263423919678 
v 4.4965500831604 3.6016428470611572 -2.0650641918182373 
v 3.524322748184204 3.7636806964874268 -3.685443162918091 
v 3.7673797607421875 5.546097755432129 -3.9285004138946533 
v 4.4965500831604 3.6016428470611572 -2.0650641918182373 
v 4.820626258850098 5.546097755432129 -2.227102041244507 
v 4.820626258850098 3.4396047592163086 -0.20162823796272278 
v 5.144701957702637 5.546097755432129 -0.20162823796272278 
v 3.524322748184204 7.247495651245117 -3.685443162918091 
v 4.4965500831604 7.409533977508545 -2.0650641918182373 
v 4.820626258850098 7.571571350097656 -0.20162823796272278 
v 3.524322748184204 9.029912948608398 -1.9030263423919678 
v 3.7673797607421875 9.272970199584961 -0.20162823796272278 
v 3.524322748184204 7.247495651245117 -3.685443162918091 
v 2.9571900367736816 8.462779998779297 -3.1183106899261475 
v 4.4965500831604 7.409533977508545 -2.0650641918182373 
v 3.524322748184204 9.029912948608398 -1.9030263423919678 
v 3.7673797607421875 1.7382066249847412 -0.20162823796272278 
v 3.524322748184204 1.9812637567520142 -1.9030263423919678 
v 3.524322748184204 7.247495651245117 3.363205909729004 
v 2.9571900367736816 8.462779998779297 2.7960731983184814 
v 1.9039437770843506 7.409533977508545 4.335433006286621 
v 1.7419058084487915 9.029912948608398 3.363205909729004 
v -4.820629596710205 3.4396047592163086 -0.20162823796272278 
v -5.144705295562744 5.465078830718994 -0.20162823796272278 
v -4.496553897857666 3.6016428470611572 -2.0650641918182373 
v -4.820629596710205 5.546097755432129 -2.227102041244507 
v -4.820629596710205 7.571571350097656 -0.20162823796272278 
v -4.496553897857666 7.409533977508545 -2.0650641918182373 
v -3.5243263244628906 1.9812637567520142 1.5807887315750122 
v -4.496553897857666 3.6016428470611572 1.7428268194198608 
v -3.767383337020874 1.7382066249847412 -0.20162823796272278 
v -4.820629596710205 3.4396047592163086 -0.20162823796272278 
v -3.5243263244628906 1.9812637567520142 -1.9030263423919678 
v -4.496553897857666 3.6016428470611572 -2.0650641918182373 
v -2.957193613052368 2.548396348953247 -3.1183106899261475 
v -3.5243263244628906 3.7636806964874268 -3.685443162918091 
v -4.820629596710205 5.546097755432129 -2.227102041244507 
v -3.767383337020874 5.546097755432129 -3.9285004138946533 
v -4.496553897857666 7.409533977508545 -2.0650641918182373 
v -3.5243263244628906 7.247495651245117 -3.685443162918091 
v -3.5243263244628906 8.867875099182129 -1.9030263423919678 
v -3.68636417388916 9.191950798034668 -0.20162823796272278 
v -4.820629596710205 7.571571350097656 -0.20162823796272278 
v -3.5243263244628906 9.029912948608398 1.5807887315750122 
v -4.496553897857666 7.409533977508545 1.7428268194198608 
v -5.144705295562744 5.465078830718994 -0.20162823796272278 
v -4.820629596710205 5.546097755432129 1.9048645496368408 
v 1.9039437770843506 10.002140045166016 1.7428268194198608 
v 2.06598162651062 10.245197296142578 -0.20162823796272278 
v 0.040507722645998 10.326215744018555 1.9048645496368408 
v 0.040507722645998 10.650291442871094 -0.20162823796272278 
v -1.903947114944458 10.002140045166016 1.7428268194198608 
v -2.0659852027893066 10.326215744018555 -0.20162823796272278 
v -3.5243263244628906 9.029912948608398 1.5807887315750122 
v -3.68636417388916 9.191950798034668 -0.20162823796272278 
v -1.903947114944458 10.002140045166016 -2.0650641918182373 
v -3.5243263244628906 8.867875099182129 -1.9030263423919678 
v -1.741909384727478 9.029912948608398 -3.685443162918091 
v -2.957193613052368 8.462779998779297 -3.1183106899261475 
v -1.903947114944458 7.409533977508545 -4.657670497894287 
v -3.5243263244628906 7.247495651245117 -3.685443162918091 
v -2.0659852027893066 5.546097755432129 -4.981746673583984 
v -3.767383337020874 5.546097755432129 -3.9285004138946533 
v -1.903947114944458 3.6016428470611572 -4.657670497894287 
v -3.5243263244628906 3.7636806964874268 -3.685443162918091 
v -1.741909384727478 1.9812637567520142 -3.685443162918091 
v -2.957193613052368 2.548396348953247 -3.1183106899261475 
v -1.903947114944458 1.0090363025665283 -2.0650641918182373 
v -3.5243263244628906 1.9812637567520142 -1.9030263423919678 
v -2.0659852027893066 0.6849603056907654 -0.20162823796272278 
v -3.767383337020874 1.7382066249847412 -0.20162823796272278 
v -1.903947114944458 1.0090363025665283 1.7428268194198608 
v 0.040507722645998 0.6849603056907654 1.9048645496368408 
v 0.040507722645998 0.3608846962451935 -0.20162823796272278 
v 1.9039437770843506 1.0090363025665283 1.7428268194198608 
v 2.06598162651062 0.6849603056907654 -0.20162823796272278 
v 0.040507722645998 0.6849603056907654 -2.227102041244507 
v 1.9039437770843506 1.0090363025665283 -2.0650641918182373 
v 0.040507722645998 1.7382066249847412 -3.9285004138946533 
v 1.7419058084487915 1.9812637567520142 -3.685443162918091 
v 0.040507722645998 3.4396047592163086 -4.981746673583984 
v 1.9039437770843506 3.6016428470611572 -4.657670497894287 
v 0.040507722645998 5.546097755432129 -5.305822372436523 
v 2.06598162651062 5.546097755432129 -4.981746673583984 
v 0.040507722645998 7.571571350097656 -4.981746673583984 
v 1.9039437770843506 7.409533977508545 -4.657670497894287 
v 0.040507722645998 9.272970199584961 -3.9285004138946533 
v 1.7419058084487915 9.029912948608398 -3.685443162918091 
v 0.040507722645998 10.326215744018555 -2.227102041244507 
v 1.9039437770843506 10.002140045166016 -2.0650641918182373 
v 3.524322748184204 7.247495651245117 3.363205909729004 
v 3.7673797607421875 5.546097755432129 3.606262683868408 
v 3.524322748184204 3.7636806964874268 3.363205909729004 
v 1.9039437770843506 3.6016428470611572 4.335433006286621 
v 1.7419058084487915 1.9812637567520142 3.363205909729004 
v 3.524322748184204 3.7636806964874268 3.363205909729004 
v 2.9571900367736816 2.548396348953247 2.7960731983184814 
v -2.0659852027893066 0.6849603056907654 -0.20162823796272278 
v -1.903947114944458 1.0090363025665283 -2.0650641918182373 
v 0.040507722645998 0.3608846962451935 -0.20162823796272278 
v 0.040507722645998 0.6849603056907654 -2.227102041244507 
v -1.741909384727478 1.9812637567520142 -3.685443162918091 
v 0.040507722645998 1.7382066249847412 -3.9285004138946533 
v -1.903947114944458 3.6016428470611572 -4.657670497894287 
v 0.040507722645998 3.4396047592163086 -4.981746673583984 
v -2.0659852027893066 5.546097755432129 -4.981746673583984 
v 0.040507722645998 5.546097755432129 -5.305822372436523 
v -1.903947114944458 7.409533977508545 -4.657670497894287 
v 0.040507722645998 7.571571350097656 -4.981746673583984 
v -1.741909384727478 9.029912948608398 -3.685443162918091 
v 0.040507722645998 9.272970199584961 -3.9285004138946533 
v -1.903947114944458 10.002140045166016 -2.0650641918182373 
v 0.040507722645998 10.326215744018555 -2.227102041244507 
v -2.0659852027893066 10.326215744018555 -0.20162823796272278 
v 0.040507722645998 10.650291442871094 -0.20162823796272278 
v 1.9039437770843506 1.0090363025665283 1.7428268194198608 
v 2.06598162651062 0.6849603056907654 -0.20162823796272278 
v 3.524322748184204 1.9812637567520142 1.5807887315750122 
v 3.7673797607421875 1.7382066249847412 -0.20162823796272278 
v 4.820626258850098 3.4396047592163086 -0.20162823796272278 
v 4.4965500831604 3.6016428470611572 1.7428268194198608 
v 5.144701957702637 5.546097755432129 -0.20162823796272278 
v 4.820626258850098 5.546097755432129 1.9048645496368408 
v 4.820626258850098 7.571571350097656 -0.20162823796272278 
v 4.4965500831604 7.409533977508545 1.7428268194198608 
v 3.7673797607421875 9.272970199584961 -0.20162823796272278 
v 3.524322748184204 9.029912948608398 1.5807887315750122 
v 1.9039437770843506 10.002140045166016 1.7428268194198608 
v 2.06598162651062 10.245197296142578 -0.20162823796272278 
v 3.524322748184204 9.029912948608398 -1.9030263423919678 
v 1.9039437770843506 10.002140045166016 -2.0650641918182373 
v 2.9571900367736816 8.462779998779297 -3.1183106899261475 
v 1.7419058084487915 9.029912948608398 -3.685443162918091 
v 3.524322748184204 7.247495651245117 -3.685443162918091 
v 1.9039437770843506 7.409533977508545 -4.657670497894287 
v 3.7673797607421875 5.546097755432129 -3.9285004138946533 
v 2.06598162651062 5.546097755432129 -4.981746673583984 
v 3.524322748184204 3.7636806964874268 -3.685443162918091 
v 1.9039437770843506 3.6016428470611572 -4.657670497894287 
v 2.9571900367736816 2.548396348953247 -3.1183106899261475 
v 1.7419058084487915 1.9812637567520142 -3.685443162918091 
v 3.524322748184204 1.9812637567520142 -1.9030263423919678 
v 1.9039437770843506 1.0090363025665283 -2.0650641918182373 
v -2.957193613052368 8.462779998779297 2.7960731983184814 
v -3.5243263244628906 7.247495651245117 3.363205909729004 
v -1.741909384727478 9.029912948608398 3.363205909729004 
v -1.903947114944458 7.409533977508545 4.335433006286621 
v -1.741909384727478 9.029912948608398 3.363205909729004 
v -1.903947114944458 10.002140045166016 1.7428268194198608 
v -2.957193613052368 8.462779998779297 2.7960731983184814 
v -3.5243263244628906 9.029912948608398 1.5807887315750122 
v -4.496553897857666 7.409533977508545 1.7428268194198608 
v -3.5243263244628906 7.247495651245117 3.363205909729004 
v -4.820629596710205 5.546097755432129 1.9048645496368408 
v -3.767383337020874 5.546097755432129 3.606262683868408 
v -4.496553897857666 3.6016428470611572 1.7428268194198608 
v -3.5243263244628906 3.7636806964874268 3.363205909729004 
v -3.5243263244628906 1.9812637567520142 1.5807887315750122 
v -2.957193613052368 2.548396348953247 2.7960731983184814 
v -1.741909384727478 1.9812637567520142 3.363205909729004 
v -1.903947114944458 1.0090363025665283 1.7428268194198608 
v 0.040507722645998 1.7382066249847412 3.606262683868408 
v 0.040507722645998 0.6849603056907654 1.9048645496368408 
v 1.7419058084487915 1.9812637567520142 3.363205909729004 
v 1.9039437770843506 1.0090363025665283 1.7428268194198608 
v 2.9571900367736816 2.548396348953247 2.7960731983184814 
v 3.524322748184204 1.9812637567520142 1.5807887315750122 
v 4.4965500831604 3.6016428470611572 1.7428268194198608 
v 3.524322748184204 3.7636806964874268 3.363205909729004 
v 4.820626258850098 5.546097755432129 1.9048645496368408 
v 3.7673797607421875 5.546097755432129 3.606262683868408 
v 4.4965500831604 7.409533977508545 1.7428268194198608 
v 3.524322748184204 7.247495651245117 3.363205909729004 
v 3.524322748184204 9.029912948608398 1.5807887315750122 
v 2.9571900367736816 8.462779998779297 2.7960731983184814 
v 1.7419058084487915 9.029912948608398 3.363205909729004 
v 1.9039437770843506 10.002140045166016 1.7428268194198608 
v 0.040507722645998 9.272970199584961 3.606262683868408 
v 0.040507722645998 10.326215744018555 1.9048645496368408 
v -3.5243263244628906 1.9812637567520142 1.5807887315750122 
v -2.957193613052368 8.462779998779297 -3.1183106899261475 
vn -1.333978533744812 -2.868136405944824 2.8665456771850586 
vn -1.4100990295410156 -1.4044164419174194 3.7765095233917236 
vn -2.45880126953125 -2.475874662399292 2.4590911865234375 
vn -2.871523141860962 -1.3266723155975342 2.8665456771850586 
vn 1.348564863204956 -2.861307144165039 2.8665456771850586 
vn 1.3987109661102295 -1.4157586097717285 3.7765095233917236 
vn -0.01609022542834282 -3.021761417388916 3.015209436416626 
vn -0.016026992350816727 -1.4793916940689087 4.004239082336426 
vn -1.333978533744812 -2.868136405944824 2.8665456771850586 
vn -1.4100990295410156 -1.4044164419174194 3.7765095233917236 
vn 1.4794784784317017 0 4.004239082336426 
vn 0 0 4.268815994262695 
vn -1.4794784784317017 -3.059903404874914e-13 4.004239082336426 
vn -2.871523141860962 -1.3266723155975342 2.8665456771850586 
vn -3.021804094314575 -6.249789097703684e-13 3.015209436416626 
vn 1.3987109661102295 1.4157586097717285 3.7765095233917236 
vn 0.016026992350816727 1.4793916940689087 4.004239082336426 
vn -1.4100990295410156 1.4044164419174194 3.7765095233917236 
vn -2.871523141860962 1.3266723155975342 2.8665456771850586 
vn 1.348564863204956 2.861307144165039 2.8665456771850586 
vn 0.01609022542834282 3.021761417388916 3.015209436416626 
vn -1.333978533744812 2.868136405944824 2.8665456771850586 
vn 2.4673526287078857 -2.4673526287078857 -2.4590911865234375 
vn 2.863776683807373 -1.34331214427948 -2.8665456771850586 
vn 2.8654677867889404 -2.8711636066436768 -1.3297756910324097 
vn 3.774445056915283 -1.4195241928100586 -1.4004651308059692 
vn 2.863776683807373 -1.34331214427948 -2.8665456771850586 
vn 3.021804094314575 0 -3.015209436416626 
vn 3.774445056915283 -1.4195241928100586 -1.4004651308059692 
vn 4.007462024688721 0 -1.4707269668579102 
vn 4.002720355987549 -1.4835537672042847 -0.009326057508587837 
vn 4.268805503845215 0 0.009326057508587837 
vn 2.863776683807373 1.34331214427948 -2.8665456771850586 
vn 3.774445056915283 1.4195241928100586 -1.4004651308059692 
vn 4.002720355987549 1.4835537672042847 0.009326057508587837 
vn 2.8654677867889404 2.8711636066436768 -1.3297756910324097 
vn 2.995620012283325 3.041210651397705 0.009326057508587837 
vn 2.863776683807373 1.34331214427948 -2.8665456771850586 
vn 2.4673526287078857 2.4673526287078857 -2.4590911865234375 
vn 3.774445056915283 1.4195241928100586 -1.4004651308059692 
vn 2.8654677867889404 2.8711636066436768 -1.3297756910324097 
vn 3.0185015201568604 -3.0185015201568604 -0.009326057508587837 
vn 2.8654677867889404 -2.8711636066436768 -1.3297756910324097 
vn 2.8647308349609375 1.3412760496139526 2.8665456771850586 
vn 2.470196485519409 2.464505434036255 2.4590911865234375 
vn 1.3987109661102295 1.4157586097717285 3.7765095233917236 
vn 1.348564863204956 2.861307144165039 2.8665456771850586 
vn -4.002720355987549 -1.4835537672042847 -0.009326057508587837 
vn -4.268805503845215 -8.828876215186132e-13 -0.009326057508587837 
vn -3.774445056915283 -1.4195241928100586 -1.4004651308059692 
vn -4.007429599761963 0.016120076179504395 -1.4707269668579102 
vn -3.9914026260375977 1.5137393474578857 -0.009326057508587837 
vn -3.775087833404541 1.435017704963684 -1.3828320503234863 
vn -2.8768484592437744 -2.8597605228424072 1.3297756910324097 
vn -3.7807233333587646 -1.4027179479599 1.4004651308059692 
vn -3.0185015201568604 -3.0185015201568604 0.009326057508587837 
vn -4.002720355987549 -1.4835537672042847 -0.009326057508587837 
vn -2.8768484592437744 -2.8597605228424072 -1.3297756910324097 
vn -3.774445056915283 -1.4195241928100586 -1.4004651308059692 
vn -2.4673526287078857 -2.4673526287078857 -2.4590911865234375 
vn -2.863776683807373 -1.34331214427948 -2.8665456771850586 
vn -4.007429599761963 0.016120076179504395 -1.4707269668579102 
vn -3.021761178970337 -0.01611754298210144 -3.015209436416626 
vn -3.775087833404541 1.435017704963684 -1.3828320503234863 
vn -2.863776683807373 1.34331214427948 -2.8665456771850586 
vn -2.9087464809417725 2.8517634868621826 -1.2764908075332642 
vn -3.0183284282684326 3.0183284282684326 -0.046629391610622406 
vn -3.9914026260375977 1.5137393474578857 -0.009326057508587837 
vn -2.87290620803833 2.8956732749938965 1.2586798667907715 
vn -3.770004987716675 1.4483190774917603 1.3828320503234863 
vn -4.268805503845215 -8.828876215186132e-13 -0.009326057508587837 
vn -4.007462024688721 -8.288357522014123e-13 1.4707269668579102 
vn 1.418212890625 3.78143310546875 1.3828320503234863 
vn 1.4835537672042847 4.002720355987549 0.009326057508587837 
vn 0.024156713858246803 4.013777256011963 1.4532028436660767 
vn 0.03223730996251106 4.268683910369873 0.009326057508587837 
vn -1.4483190774917603 3.770004987716675 1.3828320503234863 
vn -1.5438090562820435 3.97978138923645 -0.027977991849184036 
vn -2.87290620803833 2.8956732749938965 1.2586798667907715 
vn -3.0183284282684326 3.0183284282684326 -0.046629391610622406 
vn -1.4876196384429932 3.7546708583831787 -1.3828320503234863 
vn -2.9087464809417725 2.8517634868621826 -1.2764908075332642 
vn -1.3498026132583618 2.874533176422119 -2.8526971340179443 
vn -2.484225273132324 2.4956281185150146 -2.413142204284668 
vn -1.4044017791748047 1.4101136922836304 -3.7765095233917236 
vn -2.863776683807373 1.34331214427948 -2.8665456771850586 
vn -1.4794784784317017 -3.059903404874914e-13 -4.004239082336426 
vn -3.021761178970337 -0.01611754298210144 -3.015209436416626 
vn -1.4044017791748047 -1.4101136922836304 -3.7765095233917236 
vn -2.863776683807373 -1.34331214427948 -2.8665456771850586 
vn -1.34331214427948 -2.863776683807373 -2.8665456771850586 
vn -2.4673526287078857 -2.4673526287078857 -2.4590911865234375 
vn -1.4044268131256104 -3.7800889015197754 -1.4004651308059692 
vn -2.8768484592437744 -2.8597605228424072 -1.3297756910324097 
vn -1.4835537672042847 -4.002720355987549 0.009326057508587837 
vn -3.0185015201568604 -3.0185015201568604 0.009326057508587837 
vn -1.3951690196990967 -3.783515453338623 1.4004651308059692 
vn -0.016099462285637856 -4.007429599761963 1.4707269668579102 
vn 1.3224357589894375e-12 -4.268805503845215 0.009326057508587837 
vn 1.4102612733840942 -3.7779159545898438 1.4004651308059692 
vn 1.4835537672042847 -4.002720355987549 -0.009326057508587837 
vn 0.008060053922235966 -4.007453918457031 -1.4707269668579102 
vn 1.4044268131256104 -3.7800889015197754 -1.4004651308059692 
vn 0.008058800362050533 -3.0217933654785156 -3.015209436416626 
vn 1.34331214427948 -2.863776683807373 -2.8665456771850586 
vn 4.583284706621837e-13 -1.4794784784317017 -4.004239082336426 
vn 1.4158023595809937 -1.3986666202545166 -3.7765095233917236 
vn 8.828897899229582e-13 1.8260200944434125e-25 -4.268815994262695 
vn 1.4794784784317017 0 -4.004239082336426 
vn -1.529951702437457e-13 1.4794784784317017 -4.004239082336426 
vn 1.4158023595809937 1.3986666202545166 -3.7765095233917236 
vn 0.008058800362050533 3.0217933654785156 -3.015209436416626 
vn 1.34331214427948 2.863776683807373 -2.8665456771850586 
vn 0.01612512394785881 4.013817310333252 -1.4532028436660767 
vn 1.412387728691101 3.7836127281188965 -1.3828320503234863 
vn 2.8647308349609375 1.3412760496139526 2.8665456771850586 
vn 3.021804094314575 0 3.015209436416626 
vn 2.8647308349609375 -1.3412760496139526 2.8665456771850586 
vn 1.3987109661102295 -1.4157586097717285 3.7765095233917236 
vn 1.348564863204956 -2.861307144165039 2.8665456771850586 
vn 2.8647308349609375 -1.3412760496139526 2.8665456771850586 
vn 2.470196485519409 -2.464505434036255 2.4590911865234375 
vn -1.4835537672042847 -4.002720355987549 0.009326057508587837 
vn -1.4044268131256104 -3.7800889015197754 -1.4004651308059692 
vn 1.3224357589894375e-12 -4.268805503845215 0.009326057508587837 
vn 0.008060053922235966 -4.007453918457031 -1.4707269668579102 
vn -1.34331214427948 -2.863776683807373 -2.8665456771850586 
vn 0.008058800362050533 -3.0217933654785156 -3.015209436416626 
vn -1.4044017791748047 -1.4101136922836304 -3.7765095233917236 
vn 4.583284706621837e-13 -1.4794784784317017 -4.004239082336426 
vn -1.4794784784317017 -3.059903404874914e-13 -4.004239082336426 
vn 8.828897899229582e-13 1.8260200944434125e-25 -4.268815994262695 
vn -1.4044017791748047 1.4101136922836304 -3.7765095233917236 
vn -1.529951702437457e-13 1.4794784784317017 -4.004239082336426 
vn -1.3498026132583618 2.874533176422119 -2.8526971340179443 
vn 0.008058800362050533 3.0217933654785156 -3.015209436416626 
vn -1.4876196384429932 3.7546708583831787 -1.3828320503234863 
vn 0.01612512394785881 4.013817310333252 -1.4532028436660767 
vn -1.5438090562820435 3.97978138923645 -0.027977991849184036 
vn 0.03223730996251106 4.268683910369873 0.009326057508587837 
vn 1.4102612733840942 -3.7779159545898438 1.4004651308059692 
vn 1.4835537672042847 -4.002720355987549 -0.009326057508587837 
vn 2.8654677867889404 -2.8711636066436768 1.3297756910324097 
vn 3.0185015201568604 -3.0185015201568604 -0.009326057508587837 
vn 4.002720355987549 -1.4835537672042847 -0.009326057508587837 
vn 3.7750937938690186 -1.4177988767623901 1.4004651308059692 
vn 4.268805503845215 0 0.009326057508587837 
vn 4.007462024688721 0 1.4707269668579102 
vn 4.002720355987549 1.4835537672042847 0.009326057508587837 
vn 3.7750937938690186 1.4177988767623901 1.4004651308059692 
vn 2.995620012283325 3.041210651397705 0.009326057508587837 
vn 2.8654677867889404 2.8711636066436768 1.3297756910324097 
vn 1.418212890625 3.78143310546875 1.3828320503234863 
vn 1.4835537672042847 4.002720355987549 0.009326057508587837 
vn 2.8654677867889404 2.8711636066436768 -1.3297756910324097 
vn 1.412387728691101 3.7836127281188965 -1.3828320503234863 
vn 2.4673526287078857 2.4673526287078857 -2.4590911865234375 
vn 1.34331214427948 2.863776683807373 -2.8665456771850586 
vn 2.863776683807373 1.34331214427948 -2.8665456771850586 
vn 1.4158023595809937 1.3986666202545166 -3.7765095233917236 
vn 3.021804094314575 0 -3.015209436416626 
vn 1.4794784784317017 0 -4.004239082336426 
vn 2.863776683807373 -1.34331214427948 -2.8665456771850586 
vn 1.4158023595809937 -1.3986666202545166 -3.7765095233917236 
vn 2.4673526287078857 -2.4673526287078857 -2.4590911865234375 
vn 1.34331214427948 -2.863776683807373 -2.8665456771850586 
vn 2.8654677867889404 -2.8711636066436768 -1.3297756910324097 
vn 1.4044268131256104 -3.7800889015197754 -1.4004651308059692 
vn -2.45880126953125 2.475874662399292 2.4590911865234375 
vn -2.871523141860962 1.3266723155975342 2.8665456771850586 
vn -1.333978533744812 2.868136405944824 2.8665456771850586 
vn -1.4100990295410156 1.4044164419174194 3.7765095233917236 
vn -1.333978533744812 2.868136405944824 2.8665456771850586 
vn -1.4483190774917603 3.770004987716675 1.3828320503234863 
vn -2.45880126953125 2.475874662399292 2.4590911865234375 
vn -2.87290620803833 2.8956732749938965 1.2586798667907715 
vn -3.770004987716675 1.4483190774917603 1.3828320503234863 
vn -2.871523141860962 1.3266723155975342 2.8665456771850586 
vn -4.007462024688721 -8.288357522014123e-13 1.4707269668579102 
vn -3.021804094314575 -6.249789097703684e-13 3.015209436416626 
vn -3.7807233333587646 -1.4027179479599 1.4004651308059692 
vn -2.871523141860962 -1.3266723155975342 2.8665456771850586 
vn -2.8768484592437744 -2.8597605228424072 1.3297756910324097 
vn -2.45880126953125 -2.475874662399292 2.4590911865234375 
vn -1.333978533744812 -2.868136405944824 2.8665456771850586 
vn -1.3951690196990967 -3.783515453338623 1.4004651308059692 
vn -0.01609022542834282 -3.021761417388916 3.015209436416626 
vn -0.016099462285637856 -4.007429599761963 1.4707269668579102 
vn 1.348564863204956 -2.861307144165039 2.8665456771850586 
vn 1.4102612733840942 -3.7779159545898438 1.4004651308059692 
vn 2.470196485519409 -2.464505434036255 2.4590911865234375 
vn 2.8654677867889404 -2.8711636066436768 1.3297756910324097 
vn 3.7750937938690186 -1.4177988767623901 1.4004651308059692 
vn 2.8647308349609375 -1.3412760496139526 2.8665456771850586 
vn 4.007462024688721 0 1.4707269668579102 
vn 3.021804094314575 0 3.015209436416626 
vn 3.7750937938690186 1.4177988767623901 1.4004651308059692 
vn 2.8647308349609375 1.3412760496139526 2.8665456771850586 
vn 2.8654677867889404 2.8711636066436768 1.3297756910324097 
vn 2.470196485519409 2.464505434036255 2.4590911865234375 
vn 1.348564863204956 2.861307144165039 2.8665456771850586 
vn 1.418212890625 3.78143310546875 1.3828320503234863 
vn 0.01609022542834282 3.021761417388916 3.015209436416626 
vn 0.024156713858246803 4.013777256011963 1.4532028436660767 
vn -2.8768484592437744 -2.8597605228424072 1.3297756910324097 
vn -2.484225273132324 2.4956281185150146 -2.413142204284668 
vt 0.5414755344390869 0.5794080495834351 
vt 0.5426525473594666 0.6510806083679199 
vt 0.48804065585136414 0.5905701518058777 
vt 0.471445232629776 0.6425033807754517 
vt 0.823715329170227 0.4365329146385193 
vt 0.8070022463798523 0.5076180100440979 
vt 0.7572159767150879 0.4116237759590149 
vt 0.7359126210212708 0.4840013086795807 
vt 0.6880095601081848 0.39646679162979126 
vt 0.6634106636047363 0.4652019441127777 
vt 0.7882882356643677 0.5801130533218384 
vt 0.7140207886695862 0.5582587718963623 
vt 0.6397534012794495 0.5362870097160339 
vt 0.5922033786773682 0.44851750135421753 
vt 0.5673691034317017 0.5149027705192566 
vt 0.7646309733390808 0.6511980891227722 
vt 0.692011296749115 0.6325162649154663 
vt 0.6209216713905334 0.6087820529937744 
vt 0.5521860718727112 0.5842254161834717 
vt 0.7400320768356323 0.7200507521629333 
vt 0.6707079410552979 0.7048937678337097 
vt 0.6042085886001587 0.6799846291542053 
vt 0.4427269399166107 0.48752617835998535 
vt 0.44955340027809143 0.5416918396949768 
vt 0.3923521935939789 0.46672940254211426 
vt 0.37799301743507385 0.5369920134544373 
vt 0.8832705616950989 0.17052197456359863 
vt 0.8868014812469482 0.24043209850788116 
vt 0.8107685446739197 0.16546964645385742 
vt 0.8110039830207825 0.23937463760375977 
vt 0.736501157283783 0.15818490087985992 
vt 0.7315578460693359 0.23819966614246368 
vt 0.8811519742012024 0.3103422224521637 
vt 0.808650016784668 0.3132796287536621 
vt 0.7341471910476685 0.3184494376182556 
vt 0.8100624084472656 0.384952187538147 
vt 0.74144446849823 0.3948218524456024 
vt 0.5377092361450195 0.48364880681037903 
vt 0.5291172862052917 0.5374619960784912 
vt 0.46603113412857056 0.4859987497329712 
vt 0.4781540334224701 0.5567313432693481 
vt 0.7460346817970276 0.08192998915910721 
vt 0.8142995238304138 0.09379708766937256 
vt 0.5475958585739136 0.19637109339237213 
vt 0.5281756520271301 0.2473643571138382 
vt 0.47697705030441284 0.18403401970863342 
vt 0.4742699861526489 0.2557065784931183 
vt 0.3657524287700653 0.45262986421585083 
vt 0.3679887056350708 0.53240966796875 
vt 0.2913672924041748 0.4580346941947937 
vt 0.28818944096565247 0.5325271487236023 
vt 0.3658701181411743 0.6123069524765015 
vt 0.2914849817752838 0.6070196032524109 
vt 0.9640113711357117 0.6750497817993164 
vt 0.9724856019020081 0.7483673095703125 
vt 0.8926863670349121 0.6728173494338989 
vt 0.8964527249336243 0.7487198114395142 
vt 0.8212437033653259 0.6797496676445007 
vt 0.8223029971122742 0.75059974193573 
vt 0.7659256458282471 0.6933791637420654 
vt 0.7505071759223938 0.7477798461914062 
vt 0.8160649538040161 0.8223897814750671 
vt 0.7412090301513672 0.819334864616394 
vt 0.8160649538040161 0.8944148421287537 
vt 0.7443869113922119 0.8913599252700806 
vt 0.8094738721847534 0.9596251249313354 
vt 0.8792688250541687 0.9765445590019226 
vt 0.8896262049674988 0.9026395678520203 
vt 0.9496521949768066 0.9824193120002747 
vt 0.9650706648826599 0.9101592898368835 
vt 0.9052800536155701 0.8262671232223511 
vt 0.980135977268219 0.8297920227050781 
vt 0.08951523154973984 0.8082902431488037 
vt 0.06585793197154999 0.7355602383613586 
vt 0.1651950478553772 0.793603241443634 
vt 0.1428324282169342 0.7185233235359192 
vt 0.23910938203334808 0.7669316530227661 
vt 0.2193361222743988 0.6957290768623352 
vt 0.30819812417030334 0.7386151552200317 
vt 0.2896018326282501 0.6698799729347229 
vt 0.19591422379016876 0.6274639368057251 
vt 0.2666507065296173 0.6005573272705078 
vt 0.178612619638443 0.5613136887550354 
vt 0.23369528353214264 0.5532064437866211 
vt 0.1764940470457077 0.4930484890937805 
vt 0.2484075278043747 0.49492841958999634 
vt 0.1788480132818222 0.42125844955444336 
vt 0.25393933057785034 0.42031848430633545 
vt 0.17461088299751282 0.3495858907699585 
vt 0.2464066594839096 0.34582599997520447 
vt 0.17496398091316223 0.28108569979667664 
vt 0.23004664480686188 0.28813546895980835 
vt 0.19061781466007233 0.2143479883670807 
vt 0.25876495242118835 0.23655472695827484 
vt 0.21180345118045807 0.1450253427028656 
vt 0.2840700149536133 0.16805456578731537 
vt 0.22875195741653442 0.07300029695034027 
vt 0.1541314274072647 0.04903111234307289 
vt 0.13447585701942444 0.12493352591991425 
vt 0.07821621745824814 0.0365765355527401 
vt 0.05667748674750328 0.11024653166532516 
vt 0.1177627444267273 0.2009534388780594 
vt 0.04490768536925316 0.18802888691425323 
vt 0.1068168357014656 0.2732134759426117 
vt 0.03702192008495331 0.26545873284339905 
vt 0.10034344345331192 0.3457085192203522 
vt 0.026193704456090927 0.3431236147880554 
vt 0.09869567304849625 0.42231589555740356 
vt 0.020544199272990227 0.42337337136268616 
vt 0.10234431177377701 0.49892330169677734 
vt 0.028194570913910866 0.5035056471824646 
vt 0.11070086807012558 0.5711833238601685 
vt 0.04114134982228279 0.5809354782104492 
vt 0.12364764511585236 0.6429733633995056 
vt 0.051381077617406845 0.6583653688430786 
vt 0.8357205390930176 0.6678825616836548 
vt 0.8606725335121155 0.6014972925186157 
vt 0.8757378458976746 0.5321746468544006 
vt 0.3841133117675781 0.6336911916732788 
vt 0.38882124423980713 0.562136173248291 
vt 0.4556736946105957 0.6286388635635376 
vt 0.44154995679855347 0.575883150100708 
vt 0.8739724159240723 0.617006778717041 
vt 0.8955111503601074 0.5455691814422607 
vt 0.9514176845550537 0.6365110874176025 
vt 0.9688369631767273 0.558611273765564 
vt 0.9115180373191833 0.4756591022014618 
vt 0.9804890751838684 0.4828263521194458 
vt 0.9101057052612305 0.40398651361465454 
vt 0.98460853099823 0.406218945980072 
vt 0.9037500023841858 0.3297290503978729 
vt 0.9835492372512817 0.32643917202949524 
vt 0.9039853811264038 0.25511908531188965 
vt 0.9780174493789673 0.24677687883377075 
vt 0.8995128870010376 0.18356403708457947 
vt 0.967542290687561 0.1707569658756256 
vt 0.8777387142181396 0.11529885232448578 
vt 0.949769914150238 0.09626450389623642 
vt 0.850432813167572 0.0458587184548378 
vt 0.9259949326515198 0.0200095996260643 
vt 0.2579410672187805 0.9395332932472229 
vt 0.2711232304573059 0.8633958697319031 
vt 0.33103153109550476 0.9542202949523926 
vt 0.344919890165329 0.884192705154419 
vt 0.41636258363723755 0.9073393940925598 
vt 0.4114192724227905 0.9777194857597351 
vt 0.49369016289711 0.9045194983482361 
vt 0.49510252475738525 0.9823018312454224 
vt 0.5716062188148499 0.9008771181106567 
vt 0.5765495300292969 0.9737246036529541 
vt 0.6444612741470337 0.8884225487709045 
vt 0.6542302370071411 0.9572752118110657 
vt 0.7276737689971924 0.9475229978561401 
vt 0.7182579636573792 0.871268093585968 
vt 0.6313968300819397 0.8219197988510132 
vt 0.6956599354743958 0.7938382625579834 
vt 0.6163314580917358 0.7682241201400757 
vt 0.6512877941131592 0.7283929586410522 
vt 0.5628966093063354 0.757532000541687 
vt 0.5806689858436584 0.6903243064880371 
vt 0.4963972270488739 0.7527146339416504 
vt 0.4980449974536896 0.6764597296714783 
vt 0.43001553416252136 0.7557695508003235 
vt 0.4154209792613983 0.6873868703842163 
vt 0.3768160343170166 0.7637592554092407 
vt 0.34397831559181213 0.7222831845283508 
vt 0.359514445066452 0.8165149688720703 
vt 0.29689911007881165 0.7858484983444214 
vt 0.4065936505794525 0.2380821704864502 
vt 0.3997671604156494 0.18403401970863342 
vt 0.45696839690208435 0.25899645686149597 
vt 0.471327543258667 0.18861636519432068 
vt 0.4304863214492798 0.37402504682540894 
vt 0.41389092803001404 0.43688541650772095 
vt 0.37622755765914917 0.36168795824050903 
vt 0.3411535620689392 0.39564430713653564 
vt 0.3023132085800171 0.3215043246746063 
vt 0.3657524287700653 0.3070523142814636 
vt 0.2956044375896454 0.2359672486782074 
vt 0.37175503373146057 0.23714220523834229 
vt 0.305020272731781 0.15066514909267426 
vt 0.3679887056350708 0.16711458563804626 
vt 0.34621456265449524 0.0778176337480545 
vt 0.38022929430007935 0.112948939204216 
vt 0.4348411560058594 0.10237429291009903 
vt 0.42024660110473633 0.03892645612359047 
vt 0.5047537684440613 0.10836659371852875 
vt 0.5059307813644409 0.03211168944835663 
vt 0.5747841000556946 0.10460671782493591 
vt 0.5913795232772827 0.0417463593184948 
vt 0.6290428638458252 0.11694379895925522 
vt 0.6641168594360352 0.0829874575138092 
vt 0.7029572129249573 0.15700992941856384 
vt 0.6395179629325867 0.17146193981170654 
vt 0.7096660137176514 0.24266451597213745 
vt 0.6335153579711914 0.24137206375598907 
vt 0.700132429599762 0.3279666304588318 
vt 0.6372817158699036 0.3113996684551239 
vt 0.6590558290481567 0.40069663524627686 
vt 0.625041127204895 0.36568284034729004 
vt 0.570429265499115 0.3762574791908264 
vt 0.585023820400238 0.43958780169487 
vt 0.5005166530609131 0.3702651858329773 
vt 0.49933966994285583 0.4465200901031494 
vt 0.29878225922584534 0.09790945053100586 
vt 0.7553328275680542 0.9469355344772339 
s on 
f 1/1/1 2/2/2 3/3/3 
f 2/2/2 4/4/4 3/3/3 
f 3/3/3 4/4/4 4/4/4 
f 4/4/4 5/5/5 4/4/4 
f 4/4/4 5/5/5 5/5/5 
f 5/5/5 6/6/6 5/5/5 
f 5/5/5 6/6/6 7/7/7 
f 6/6/6 8/8/8 7/7/7 
f 7/7/7 8/8/8 9/9/9 
f 8/8/8 10/10/10 9/9/9 
f 9/9/9 10/10/10 10/10/10 
f 10/10/10 6/6/6 10/10/10 
f 10/10/10 6/6/6 6/6/6 
f 6/6/6 11/11/11 6/6/6 
f 6/6/6 11/11/11 8/8/8 
f 11/11/11 12/12/12 8/8/8 
f 8/8/8 12/12/12 10/10/10 
f 12/12/12 13/13/13 10/10/10 
f 10/10/10 13/13/13 14/14/14 
f 13/13/13 15/15/15 14/14/14 
f 14/14/14 15/15/15 15/15/15 
f 15/15/15 11/11/11 15/15/15 
f 15/15/15 11/11/11 11/11/11 
f 11/11/11 16/16/16 11/11/11 
f 11/11/11 16/16/16 12/12/12 
f 16/16/16 17/17/17 12/12/12 
f 12/12/12 17/17/17 13/13/13 
f 17/17/17 18/18/18 13/13/13 
f 13/13/13 18/18/18 15/15/15 
f 18/18/18 19/19/19 15/15/15 
f 15/15/15 19/19/19 19/19/19 
f 19/19/19 16/16/16 19/19/19 
f 19/19/19 16/16/16 16/16/16 
f 16/16/16 20/20/20 16/16/16 
f 16/16/16 20/20/20 17/17/17 
f 20/20/20 21/21/21 17/17/17 
f 17/17/17 21/21/21 18/18/18 
f 21/21/21 22/22/22 18/18/18 
f 18/18/18 22/22/22 22/22/22 
f 22/22/22 23/23/23 22/22/22 
f 22/22/22 23/23/23 23/23/23 
f 23/23/23 24/24/24 23/23/23 
f 23/23/23 24/24/24 25/25/25 
f 24/24/24 26/26/26 25/25/25 
f 25/25/25 26/26/26 26/26/26 
f 26/26/26 27/27/27 26/26/26 
f 26/26/26 27/27/27 27/27/27 
f 27/27/27 28/28/28 27/27/27 
f 27/27/27 28/28/28 29/29/29 
f 28/28/28 30/30/30 29/29/29 
f 29/29/29 30/30/30 31/31/31 
f 30/30/30 32/32/32 31/31/31 
f 31/31/31 32/32/32 32/32/32 
f 32/32/32 28/28/28 32/32/32 
f 32/32/32 28/28/28 28/28/28 
f 28/28/28 33/33/33 28/28/28 
f 28/28/28 33/33/33 30/30/30 
f 33/33/33 34/34/34 30/30/30 
f 30/30/30 34/34/34 32/32/32 
f 34/34/34 35/35/35 32/32/32 
f 32/32/32 35/35/35 35/35/35 
f 35/35/35 34/34/34 35/35/35 
f 35/35/35 34/34/34 34/34/34 
f 34/34/34 36/36/36 34/34/34 
f 34/34/34 36/36/36 35/35/35 
f 36/36/36 37/37/37 35/35/35 
f 35/35/35 37/37/37 37/37/37 
f 37/37/37 38/38/38 37/37/37 
f 37/37/37 38/38/38 38/38/38 
f 38/38/38 39/39/39 38/38/38 
f 38/38/38 39/39/39 40/40/40 
f 39/39/39 41/41/41 40/40/40 
f 40/40/40 41/41/41 41/41/41 
f 41/41/41 31/31/31 41/41/41 
f 41/41/41 31/31/31 31/31/31 
f 31/31/31 42/42/42 31/31/31 
f 31/31/31 42/42/42 29/29/29 
f 42/42/42 43/43/43 29/29/29 
f 29/29/29 43/43/43 43/43/43 
f 43/43/43 44/44/44 43/43/43 
f 43/43/43 44/44/44 44/44/44 
f 44/44/44 45/45/45 44/44/44 
f 44/44/44 45/45/45 46/46/46 
f 45/45/45 47/47/47 46/46/46 
f 46/46/46 47/47/47 47/47/47 
f 47/47/47 48/48/48 47/47/47 
f 47/47/47 48/48/48 48/48/48 
f 48/48/48 49/49/49 48/48/48 
f 48/48/48 49/49/49 50/50/50 
f 49/49/49 51/51/51 50/50/50 
f 50/50/50 51/51/51 51/51/51 
f 51/51/51 49/49/49 51/51/51 
f 51/51/51 49/49/49 49/49/49 
f 49/49/49 52/52/52 49/49/49 
f 49/49/49 52/52/52 51/51/51 
f 52/52/52 53/53/53 51/51/51 
f 51/51/51 53/53/53 53/53/53 
f 53/53/53 54/54/54 53/53/53 
f 53/53/53 54/54/54 54/54/54 
f 54/54/54 55/55/55 54/54/54 
f 54/54/54 55/55/55 56/56/56 
f 55/55/55 57/57/57 56/56/56 
f 56/56/56 57/57/57 58/58/58 
f 57/57/57 59/59/59 58/58/58 
f 58/58/58 59/59/59 60/60/60 
f 59/59/59 61/61/61 60/60/60 
f 60/60/60 61/61/61 61/61/61 
f 61/61/61 59/59/59 61/61/61 
f 61/61/61 59/59/59 59/59/59 
f 59/59/59 62/62/62 59/59/59 
f 59/59/59 62/62/62 61/61/61 
f 62/62/62 63/63/63 61/61/61 
f 61/61/61 63/63/63 63/63/63 
f 63/63/63 62/62/62 63/63/63 
f 63/63/63 62/62/62 62/62/62 
f 62/62/62 64/64/64 62/62/62 
f 62/62/62 64/64/64 63/63/63 
f 64/64/64 65/65/65 63/63/63 
f 63/63/63 65/65/65 65/65/65 
f 65/65/65 64/64/64 65/65/65 
f 65/65/65 64/64/64 66/66/66 
f 64/64/64 67/67/67 66/66/66 
f 66/66/66 67/67/67 67/67/67 
f 67/67/67 64/64/64 67/67/67 
f 67/67/67 64/64/64 64/64/64 
f 64/64/64 68/68/68 64/64/64 
f 64/64/64 68/68/68 67/67/67 
f 68/68/68 69/69/69 67/67/67 
f 67/67/67 69/69/69 69/69/69 
f 69/69/69 68/68/68 69/69/69 
f 69/69/69 68/68/68 70/70/70 
f 68/68/68 71/71/71 70/70/70 
f 70/70/70 71/71/71 72/72/72 
f 71/71/71 57/57/57 72/72/72 
f 72/72/72 57/57/57 55/55/55 
f 57/57/57 55/55/55 55/55/55 
f 55/55/55 55/55/55 73/73/73 
f 55/55/55 73/73/73 73/73/73 
f 73/73/73 73/73/73 73/73/73 
f 73/73/73 74/74/74 73/73/73 
f 73/73/73 74/74/74 75/75/75 
f 74/74/74 76/76/76 75/75/75 
f 75/75/75 76/76/76 77/77/77 
f 76/76/76 78/78/78 77/77/77 
f 77/77/77 78/78/78 79/79/79 
f 78/78/78 80/80/80 79/79/79 
f 79/79/79 80/80/80 80/80/80 
f 80/80/80 78/78/78 80/80/80 
f 80/80/80 78/78/78 78/78/78 
f 78/78/78 81/81/81 78/78/78 
f 78/78/78 81/81/81 80/80/80 
f 81/81/81 82/82/82 80/80/80 
f 80/80/80 82/82/82 82/82/82 
f 82/82/82 81/81/81 82/82/82 
f 82/82/82 81/81/81 81/81/81 
f 81/81/81 83/83/83 81/81/81 
f 81/81/81 83/83/83 82/82/82 
f 83/83/83 84/84/84 82/82/82 
f 82/82/82 84/84/84 84/84/84 
f 84/84/84 83/83/83 84/84/84 
f 84/84/84 83/83/83 83/83/83 
f 83/83/83 85/85/85 83/83/83 
f 83/83/83 85/85/85 84/84/84 
f 85/85/85 86/86/86 84/84/84 
f 84/84/84 86/86/86 86/86/86 
f 86/86/86 85/85/85 86/86/86 
f 86/86/86 85/85/85 85/85/85 
f 85/85/85 87/87/87 85/85/85 
f 85/85/85 87/87/87 86/86/86 
f 87/87/87 88/88/88 86/86/86 
f 86/86/86 88/88/88 88/88/88 
f 88/88/88 87/87/87 88/88/88 
f 88/88/88 87/87/87 87/87/87 
f 87/87/87 89/89/89 87/87/87 
f 87/87/87 89/89/89 88/88/88 
f 89/89/89 90/90/90 88/88/88 
f 88/88/88 90/90/90 90/90/90 
f 90/90/90 89/89/89 90/90/90 
f 90/90/90 89/89/89 89/89/89 
f 89/89/89 91/91/91 89/89/89 
f 89/89/89 91/91/91 90/90/90 
f 91/91/91 92/92/92 90/90/90 
f 90/90/90 92/92/92 92/92/92 
f 92/92/92 91/91/91 92/92/92 
f 92/92/92 91/91/91 91/91/91 
f 91/91/91 93/93/93 91/91/91 
f 91/91/91 93/93/93 92/92/92 
f 93/93/93 94/94/94 92/92/92 
f 92/92/92 94/94/94 94/94/94 
f 94/94/94 93/93/93 94/94/94 
f 94/94/94 93/93/93 93/93/93 
f 93/93/93 95/95/95 93/93/93 
f 93/93/93 95/95/95 94/94/94 
f 95/95/95 96/96/96 94/94/94 
f 94/94/94 96/96/96 96/96/96 
f 96/96/96 95/95/95 96/96/96 
f 96/96/96 95/95/95 97/97/97 
f 95/95/95 98/98/98 97/97/97 
f 97/97/97 98/98/98 98/98/98 
f 98/98/98 95/95/95 98/98/98 
f 98/98/98 95/95/95 95/95/95 
f 95/95/95 99/99/99 95/95/95 
f 95/95/95 99/99/99 98/98/98 
f 99/99/99 100/100/100 98/98/98 
f 98/98/98 100/100/100 100/100/100 
f 100/100/100 99/99/99 100/100/100 
f 100/100/100 99/99/99 101/101/101 
f 99/99/99 102/102/102 101/101/101 
f 101/101/101 102/102/102 103/103/103 
f 102/102/102 104/104/104 103/103/103 
f 103/103/103 104/104/104 105/105/105 
f 104/104/104 106/106/106 105/105/105 
f 105/105/105 106/106/106 107/107/107 
f 106/106/106 108/108/108 107/107/107 
f 107/107/107 108/108/108 109/109/109 
f 108/108/108 110/110/110 109/109/109 
f 109/109/109 110/110/110 111/111/111 
f 110/110/110 112/112/112 111/111/111 
f 111/111/111 112/112/112 113/113/113 
f 112/112/112 114/114/114 113/113/113 
f 113/113/113 114/114/114 115/115/115 
f 114/114/114 76/76/76 115/115/115 
f 115/115/115 76/76/76 74/74/74 
f 76/76/76 74/74/74 74/74/74 
f 74/74/74 74/74/74 16/16/16 
f 74/74/74 16/16/16 16/16/16 
f 16/16/16 16/16/16 16/16/16 
f 16/16/16 11/11/11 16/16/16 
f 16/16/16 11/11/11 116/116/116 
f 11/11/11 117/117/117 116/116/116 
f 116/116/116 117/117/117 117/117/117 
f 117/117/117 11/11/11 117/117/117 
f 117/117/117 11/11/11 11/11/11 
f 11/11/11 6/6/6 11/11/11 
f 11/11/11 6/6/6 117/117/117 
f 6/6/6 118/118/118 117/117/117 
f 117/117/117 118/118/118 118/118/118 
f 118/118/118 119/119/119 118/118/118 
f 118/118/118 119/119/119 119/119/119 
f 119/119/119 120/120/120 119/119/119 
f 119/119/119 120/120/120 121/121/121 
f 120/120/120 122/122/122 121/121/121 
f 121/121/121 122/122/122 122/122/122 
f 122/122/122 123/123/123 122/122/122 
f 122/122/122 123/123/123 123/123/123 
f 123/123/123 124/124/124 123/123/123 
f 123/123/123 124/124/124 125/125/125 
f 124/124/124 126/126/126 125/125/125 
f 125/125/125 126/126/126 126/126/126 
f 126/126/126 124/124/124 126/126/126 
f 126/126/126 124/124/124 124/124/124 
f 124/124/124 127/127/127 124/124/124 
f 124/124/124 127/127/127 126/126/126 
f 127/127/127 128/128/128 126/126/126 
f 126/126/126 128/128/128 128/128/128 
f 128/128/128 127/127/127 128/128/128 
f 128/128/128 127/127/127 127/127/127 
f 127/127/127 129/129/129 127/127/127 
f 127/127/127 129/129/129 128/128/128 
f 129/129/129 130/130/130 128/128/128 
f 128/128/128 130/130/130 130/130/130 
f 130/130/130 129/129/129 130/130/130 
f 130/130/130 129/129/129 129/129/129 
f 129/129/129 131/131/131 129/129/129 
f 129/129/129 131/131/131 130/130/130 
f 131/131/131 132/132/132 130/130/130 
f 130/130/130 132/132/132 132/132/132 
f 132/132/132 131/131/131 132/132/132 
f 132/132/132 131/131/131 131/131/131 
f 131/131/131 133/133/133 131/131/131 
f 131/131/131 133/133/133 132/132/132 
f 133/133/133 134/134/134 132/132/132 
f 132/132/132 134/134/134 134/134/134 
f 134/134/134 133/133/133 134/134/134 
f 134/134/134 133/133/133 133/133/133 
f 133/133/133 135/135/135 133/133/133 
f 133/133/133 135/135/135 134/134/134 
f 135/135/135 136/136/136 134/134/134 
f 134/134/134 136/136/136 136/136/136 
f 136/136/136 135/135/135 136/136/136 
f 136/136/136 135/135/135 135/135/135 
f 135/135/135 137/137/137 135/135/135 
f 135/135/135 137/137/137 136/136/136 
f 137/137/137 138/138/138 136/136/136 
f 136/136/136 138/138/138 138/138/138 
f 138/138/138 137/137/137 138/138/138 
f 138/138/138 137/137/137 137/137/137 
f 137/137/137 139/139/139 137/137/137 
f 137/137/137 139/139/139 138/138/138 
f 139/139/139 140/140/140 138/138/138 
f 138/138/138 140/140/140 140/140/140 
f 140/140/140 141/141/141 140/140/140 
f 140/140/140 141/141/141 141/141/141 
f 141/141/141 142/142/142 141/141/141 
f 141/141/141 142/142/142 143/143/143 
f 142/142/142 144/144/144 143/143/143 
f 143/143/143 144/144/144 145/145/145 
f 144/144/144 145/145/145 145/145/145 
f 145/145/145 145/145/145 143/143/143 
f 145/145/145 143/143/143 143/143/143 
f 143/143/143 143/143/143 143/143/143 
f 143/143/143 145/145/145 143/143/143 
f 143/143/143 145/145/145 146/146/146 
f 145/145/145 147/147/147 146/146/146 
f 146/146/146 147/147/147 148/148/148 
f 147/147/147 149/149/149 148/148/148 
f 148/148/148 149/149/149 150/150/150 
f 149/149/149 151/151/151 150/150/150 
f 150/150/150 151/151/151 152/152/152 
f 151/151/151 153/153/153 152/152/152 
f 152/152/152 153/153/153 153/153/153 
f 153/153/153 151/151/151 153/153/153 
f 153/153/153 151/151/151 154/154/154 
f 151/151/151 155/155/155 154/154/154 
f 154/154/154 155/155/155 156/156/156 
f 155/155/155 157/157/157 156/156/156 
f 156/156/156 157/157/157 158/158/158 
f 157/157/157 159/159/159 158/158/158 
f 158/158/158 159/159/159 160/160/160 
f 159/159/159 161/161/161 160/160/160 
f 160/160/160 161/161/161 162/162/162 
f 161/161/161 163/163/163 162/162/162 
f 162/162/162 163/163/163 164/164/164 
f 163/163/163 165/165/165 164/164/164 
f 164/164/164 165/165/165 166/166/166 
f 165/165/165 167/167/167 166/166/166 
f 166/166/166 167/167/167 168/168/168 
f 167/167/167 144/144/144 168/168/168 
f 168/168/168 144/144/144 142/142/142 
f 144/144/144 142/142/142 142/142/142 
f 142/142/142 142/142/142 169/169/169 
f 142/142/142 169/169/169 169/169/169 
f 169/169/169 169/169/169 169/169/169 
f 169/169/169 170/170/170 169/169/169 
f 169/169/169 170/170/170 171/171/171 
f 170/170/170 172/172/172 171/171/171 
f 171/171/171 172/172/172 172/172/172 
f 172/172/172 173/173/173 172/172/172 
f 172/172/172 173/173/173 173/173/173 
f 173/173/173 174/174/174 173/173/173 
f 173/173/173 174/174/174 175/175/175 
f 174/174/174 176/176/176 175/175/175 
f 175/175/175 176/176/176 177/177/177 
f 176/176/176 177/177/177 177/177/177 
f 177/177/177 177/177/177 175/175/175 
f 177/177/177 175/175/175 175/175/175 
f 175/175/175 175/175/175 175/175/175 
f 175/175/175 177/177/177 175/175/175 
f 175/175/175 177/177/177 178/178/178 
f 177/177/177 179/179/179 178/178/178 
f 178/178/178 179/179/179 180/180/180 
f 179/179/179 181/181/181 180/180/180 
f 180/180/180 181/181/181 182/182/182 
f 181/181/181 183/183/183 182/182/182 
f 182/182/182 183/183/183 184/184/184 
f 183/183/183 185/185/185 184/184/184 
f 184/184/184 185/185/185 185/185/185 
f 185/185/185 183/183/183 185/185/185 
f 185/185/185 183/183/183 183/183/183 
f 183/183/183 186/186/186 183/183/183 
f 183/183/183 186/186/186 185/185/185 
f 186/186/186 187/187/187 185/185/185 
f 185/185/185 187/187/187 187/187/187 
f 187/187/187 186/186/186 187/187/187 
f 187/187/187 186/186/186 186/186/186 
f 186/186/186 188/188/188 186/186/186 
f 186/186/186 188/188/188 187/187/187 
f 188/188/188 189/189/189 187/187/187 
f 187/187/187 189/189/189 189/189/189 
f 189/189/189 188/188/188 189/189/189 
f 189/189/189 188/188/188 188/188/188 
f 188/188/188 190/190/190 188/188/188 
f 188/188/188 190/190/190 189/189/189 
f 190/190/190 191/191/191 189/189/189 
f 189/189/189 191/191/191 191/191/191 
f 191/191/191 190/190/190 191/191/191 
f 191/191/191 190/190/190 190/190/190 
f 190/190/190 192/192/192 190/190/190 
f 190/190/190 192/192/192 191/191/191 
f 192/192/192 193/193/193 191/191/191 
f 191/191/191 193/193/193 194/194/194 
f 193/193/193 195/195/195 194/194/194 
f 194/194/194 195/195/195 196/196/196 
f 195/195/195 197/197/197 196/196/196 
f 196/196/196 197/197/197 198/198/198 
f 197/197/197 199/199/199 198/198/198 
f 198/198/198 199/199/199 200/200/200 
f 199/199/199 201/201/201 200/200/200 
f 200/200/200 201/201/201 201/201/201 
f 201/201/201 199/199/199 201/201/201 
f 201/201/201 199/199/199 199/199/199 
f 199/199/199 202/202/202 199/199/199 
f 199/199/199 202/202/202 201/201/201 
f 202/202/202 203/203/203 201/201/201 
f 201/201/201 203/203/203 203/203/203 
f 203/203/203 202/202/202 203/203/203 
f 203/203/203 202/202/202 202/202/202 
f 202/202/202 204/204/204 202/202/202 
f 202/202/202 204/204/204 203/203/203 
f 204/204/204 173/173/173 203/203/203 
f 173/173/173 204/204/204 174/174/174 
f 96/96/96 97/97/97 205/205/205 
f 65/65/65 66/66/66 206/206/206 

