mtllib model_4.mtl
o model_4
v -0.7778440117835999 17.025585174560547 -8.143661499023438 
v -0.6408193707466125 16.98330307006836 -8.13003921508789 
v -0.7811405658721924 17.05291175842285 -8.054227828979492 
v -0.6440327763557434 17.0140438079834 -8.034406661987305 
v -0.772609531879425 17.12805938720703 -7.985284328460693 
v -0.6351140141487122 17.092607498168945 -7.962329864501953 
v -0.7542728781700134 17.230531692504883 -7.958699703216553 
v -0.6156970858573914 17.20191192626953 -7.932542324066162 
v -0.7317534685134888 17.32958984375 -7.981222629547119 
v -0.5914880633354187 17.30780029296875 -7.9579925537109375 
v -0.7098156213760376 17.404735565185547 -8.047136306762695 
v -0.5685529708862305 17.386362075805664 -8.026902198791504 
v -0.6954394578933716 17.43206214904785 -8.135468482971191 
v -0.5528749823570251 17.417104721069336 -8.121295928955078 
v -0.691838264465332 17.404735565185547 -8.227967262268066 
v -0.5493568181991577 17.386362075805664 -8.219992637634277 
v -0.7003692984580994 17.32958984375 -8.296910285949707 
v -0.5582756400108337 17.30780029296875 -8.292069435119629 
v -0.7180134654045105 17.230531692504883 -8.323426246643066 
v -0.577000081539154 17.20191192626953 -8.32178783416748 
v -0.7412253022193909 17.12805938720703 -8.300971984863281 
v -0.6019015908241272 17.092607498168945 -8.296406745910645 
v -0.7631632089614868 17.05291175842285 -8.235057830810547 
v -0.6248366236686707 17.0140438079834 -8.227497100830078 
v -0.7778440117835999 17.025585174560547 -8.143661499023438 
v -0.6408193707466125 16.98330307006836 -8.13003921508789 
v -0.5298769474029541 16.98193359375 -8.119009017944336 
v -0.5328688025474548 17.009260177612305 -8.03264045715332 
v -0.5247255563735962 17.080991744995117 -7.966831684112549 
v -0.5070813298225403 17.1800479888916 -7.9403157234191895 
v -0.4852544367313385 17.27569007873535 -7.962907314300537 
v -0.4643137454986572 17.347421646118164 -8.025825500488281 
v -0.4502423107624054 17.37474822998047 -8.111092567443848 
v -0.44694578647613525 17.347421646118164 -8.200526237487793 
v -0.4550890624523163 17.27569007873535 -8.266335487365723 
v -0.47204074263572693 17.1800479888916 -8.2927827835083 
v -0.4945601522922516 17.080991744995117 -8.270259857177734 
v -0.5155008435249329 17.009260177612305 -8.207341194152832 
v -0.5298769474029541 16.98193359375 -8.119009017944336 
v -0.7736892104148865 17.046079635620117 -8.143248558044434 
v -0.7778440117835999 17.025585174560547 -8.143661499023438 
v -0.7767640948295593 17.069990158081055 -8.063077926635742 
v -0.7811405658721924 17.05291175842285 -8.054227828979492 
v -0.7690085768699646 17.1383056640625 -8.000402450561523 
v -0.772609531879425 17.12805938720703 -7.985284328460693 
v -0.7524446845054626 17.230531692504883 -7.9770894050598145 
v -0.7542728781700134 17.230531692504883 -7.958699703216553 
v -0.7323073744773865 17.3193416595459 -7.996754169464111 
v -0.7317534685134888 17.32958984375 -7.981222629547119 
v -0.7130563855171204 17.384241104125977 -8.056744575500488 
v -0.7098156213760376 17.404735565185547 -8.047136306762695 
v -0.6995943188667297 17.41156768798828 -8.135882377624512 
v -0.6954394578933716 17.43206214904785 -8.135468482971191 
v -0.6962147355079651 17.387657165527344 -8.219117164611816 
v -0.691838264465332 17.404735565185547 -8.227967262268066 
v -0.703970193862915 17.3193416595459 -8.281792640686035 
v -0.7003692984580994 17.32958984375 -8.296910285949707 
v -0.7198416590690613 17.230531692504883 -8.305036544799805 
v -0.7180134654045105 17.230531692504883 -8.323426246643066 
v -0.7406713962554932 17.1383056640625 -8.285441398620605 
v -0.7412253022193909 17.12805938720703 -8.300971984863281 
v -0.7606149315834045 17.069990158081055 -8.225519180297852 
v -0.7631632089614868 17.05291175842285 -8.235057830810547 
v -0.7736892104148865 17.046079635620117 -8.143248558044434 
v -0.7778440117835999 17.025585174560547 -8.143661499023438 
v -0.5298769474029541 16.98193359375 -8.119009017944336 
v -0.5250296592712402 17.005844116210938 -8.11852741241455 
v -0.5328688025474548 17.009260177612305 -8.03264045715332 
v -0.5284923315048218 17.026338577270508 -8.041491508483887 
v -0.5247255563735962 17.080991744995117 -7.966831684112549 
v -0.5211246013641357 17.091238021850586 -7.981949806213379 
v -0.5070813298225403 17.1800479888916 -7.9403157234191895 
v -0.5049484372138977 17.1800479888916 -7.961770057678223 
v -0.4852544367313385 17.27569007873535 -7.962907314300537 
v -0.4858083724975586 17.26544189453125 -7.978438854217529 
v -0.4643137454986572 17.347421646118164 -8.025825500488281 
v -0.4668620228767395 17.33034324645996 -8.035364151000977 
v -0.4502423107624054 17.37474822998047 -8.111092567443848 
v -0.45508965849876404 17.35083770751953 -8.111574172973633 
v -0.44694578647613525 17.347421646118164 -8.200526237487793 
v -0.4513222575187683 17.33034324645996 -8.191675186157227 
v -0.4550890624523163 17.27569007873535 -8.266335487365723 
v -0.45868998765945435 17.26544189453125 -8.251216888427734 
v -0.47204074263572693 17.1800479888916 -8.2927827835083 
v -0.4741736650466919 17.1800479888916 -8.27132797241211 
v -0.4945601522922516 17.080991744995117 -8.270259857177734 
v -0.4940062165260315 17.091238021850586 -8.254728317260742 
v -0.5155008435249329 17.009260177612305 -8.207341194152832 
v -0.5129525661468506 17.026338577270508 -8.197802543640137 
v -0.5298769474029541 16.98193359375 -8.119009017944336 
v -0.5250296592712402 17.005844116210938 -8.11852741241455 
vn -36.24711608886719 -120.94918060302734 -3.916658878326416 
vn -20.761056900024414 -124.32131958007812 -2.3771069049835205 
vn -39.9569091796875 -104.46451568603516 67.51341247558594 
vn -24.497629165649414 -107.86157989501953 69.05030059814453 
vn -35.886322021484375 -59.07543182373047 120.51033782958984 
vn -20.514875411987305 -62.621986389160156 122.03849029541016 
vn -24.65142250061035 2.396848678588867 140.6513214111328 
vn -10.022080421447754 -0.8362464308738708 142.3026580810547 
vn -11.001614570617676 63.67350387573242 122.9842529296875 
vn 4.525365829467773 60.89414596557617 124.52787780761719 
vn 3.334805965423584 109.08075714111328 71.81726837158203 
vn 18.884422302246094 106.1292953491211 73.36314392089844 
vn 13.668070793151855 125.57184600830078 1.6719551086425781 
vn 29.294279098510742 122.5869140625 2.5991616249084473 
vn 17.39349937438965 109.0832290649414 -69.75656127929688 
vn 32.964717864990234 106.12799072265625 -68.20854187011719 
vn 13.372848510742188 63.68019485473633 -122.74851989746094 
vn 28.974576950073242 60.889381408691406 -121.19747161865234 
vn 3.4306163787841797 1.9377856254577637 -142.760986328125 
vn 18.034284591674805 -1.2919847965240479 -141.50611877441406 
vn -11.510116577148438 -59.060142517089844 -125.2222671508789 
vn 3.9345803260803223 -62.625545501708984 -123.68682861328125 
vn -25.199750900268555 -104.63632202148438 -73.99098205566406 
vn -11.125516891479492 -107.72933197021484 -72.59178924560547 
vn -36.24711608886719 -120.94918060302734 -3.916658878326416 
vn -20.761056900024414 -124.32131958007812 -2.3771069049835205 
vn -0.9199477434158325 -127.37063598632812 0.22168231010437012 
vn -4.617144584655762 -111.02398681640625 70.48321533203125 
vn -0.13670751452445984 -66.12323760986328 123.11315155029297 
vn 9.583359718322754 -5.066238880157471 143.1367950439453 
vn 23.99183464050293 56.397891998291016 125.51190185546875 
vn 38.415771484375 101.24472045898438 74.76134490966797 
vn 48.79784393310547 117.56847381591797 4.538115501403809 
vn 52.41535568237305 101.23478698730469 -65.73133850097656 
vn 48.286197662353516 56.377532958984375 -118.32635498046875 
vn 37.6708984375 -4.603700160980225 -138.4390106201172 
vn 23.456018447875977 -66.10243225097656 -120.79486083984375 
vn 10.095911979675293 -111.10076904296875 -69.93854522705078 
vn -0.9199477434158325 -127.37063598632812 0.22168231010437012 
vn -187.01002502441406 38.280723571777344 -18.278526306152344 
vn -187.01002502441406 38.280723571777344 -18.278526306152344 
vn -186.94837951660156 38.280723571777344 -18.8986759185791 
vn -186.94837951660156 38.280723571777344 -18.8986759185791 
vn -186.94837951660156 38.280723571777344 -18.8986759185791 
vn -186.94837951660156 38.280723571777344 -18.8986759185791 
vn -187.01002502441406 38.280723571777344 -18.278526306152344 
vn -187.01002502441406 38.280723571777344 -18.278526306152344 
vn -187.01002502441406 38.280723571777344 -18.278526306152344 
vn -187.01002502441406 38.280723571777344 -18.278526306152344 
vn -187.01002502441406 38.280723571777344 -18.278526306152344 
vn -187.01002502441406 38.280723571777344 -18.278526306152344 
vn -187.01002502441406 38.280723571777344 -18.278526306152344 
vn -187.01002502441406 38.280723571777344 -18.278526306152344 
vn -186.94837951660156 38.280723571777344 -18.8986759185791 
vn -186.94837951660156 38.280723571777344 -18.8986759185791 
vn -187.01002502441406 38.280723571777344 -18.278526306152344 
vn -187.01002502441406 38.280723571777344 -18.278526306152344 
vn -187.01002502441406 38.280723571777344 -18.278526306152344 
vn -187.01002502441406 38.280723571777344 -18.278526306152344 
vn -187.01002502441406 38.280723571777344 -18.278526306152344 
vn -187.01002502441406 38.280723571777344 -18.278526306152344 
vn -187.01002502441406 38.280723571777344 -18.278526306152344 
vn -187.01002502441406 38.280723571777344 -18.278526306152344 
vn -187.01002502441406 38.280723571777344 -18.278526306152344 
vn -187.01002502441406 38.280723571777344 -18.278526306152344 
vn 187.01002502441406 -38.280723571777344 18.278526306152344 
vn 187.01002502441406 -38.280723571777344 18.278526306152344 
vn 186.94837951660156 -38.280723571777344 18.8986759185791 
vn 186.94837951660156 -38.280723571777344 18.8986759185791 
vn 187.01002502441406 -38.280723571777344 18.278526306152344 
vn 187.01002502441406 -38.280723571777344 18.278526306152344 
vn 187.01002502441406 -38.280723571777344 18.278526306152344 
vn 187.01002502441406 -38.280723571777344 18.278526306152344 
vn 187.01002502441406 -38.280723571777344 18.278526306152344 
vn 187.01002502441406 -38.280723571777344 18.278526306152344 
vn 186.94837951660156 -38.280723571777344 18.8986759185791 
vn 186.94837951660156 -38.280723571777344 18.8986759185791 
vn 186.94837951660156 -38.280723571777344 18.8986759185791 
vn 187.01002502441406 -38.280723571777344 18.278526306152344 
vn 186.94837951660156 -38.280723571777344 18.8986759185791 
vn 186.94837951660156 -38.280723571777344 18.8986759185791 
vn 186.94837951660156 -38.280723571777344 18.8986759185791 
vn 186.94837951660156 -38.280723571777344 18.8986759185791 
vn 186.94837951660156 -38.280723571777344 18.8986759185791 
vn 186.94837951660156 -38.280723571777344 18.8986759185791 
vn 186.94837951660156 -38.280723571777344 18.8986759185791 
vn 186.94837951660156 -38.280723571777344 18.8986759185791 
vn 187.01002502441406 -38.280723571777344 18.278526306152344 
vn 187.01002502441406 -38.280723571777344 18.278526306152344 
vn 187.01002502441406 -38.280723571777344 18.278526306152344 
vn 187.01002502441406 -38.280723571777344 18.278526306152344 
vt 0.7770947217941284 0.03515131399035454 
vt 0.9134019017219543 0.16882306337356567 
vt 0.7194488644599915 0.10025269538164139 
vt 0.8427241444587708 0.22363311052322388 
vt 0.6564024090766907 0.1583004593849182 
vt 0.7745118141174316 0.280640184879303 
vt 0.592299222946167 0.21553879976272583 
vt 0.708647608757019 0.33857229351997375 
vt 0.5280787348747253 0.27300840616226196 
vt 0.6444270610809326 0.3968513309955597 
vt 0.4642103910446167 0.331056147813797 
vt 0.5810283422470093 0.45536163449287415 
vt 0.40128132700920105 0.3904915153980255 
vt 0.5186862945556641 0.514218807220459 
vt 0.33940887451171875 0.4506206810474396 
vt 0.45693129301071167 0.573885440826416 
vt 0.27847567200660706 0.5109810829162598 
vt 0.395293653011322 0.6341302394866943 
vt 0.21836432814598083 0.5712258815765381 
vt 0.3334212303161621 0.6951844692230225 
vt 0.15837037563323975 0.6301987171173096 
vt 0.2709617614746094 0.7569324970245361 
vt 0.09696755558252335 0.6852400302886963 
vt 0.20768046379089355 0.8198368549346924 
vt 0.029459679499268532 0.7302212715148926 
vt 0.14322511851787567 0.8829724788665771 
vt 0.9841971397399902 0.2978695034980774 
vt 0.9158674478530884 0.3348720371723175 
vt 0.8529383540153503 0.3839004337787628 
vt 0.791770339012146 0.4380166828632355 
vt 0.7308371663093567 0.49421432614326477 
vt 0.6700213551521301 0.5513370037078857 
vt 0.6093229651451111 0.6090378761291504 
vt 0.5487419962882996 0.6673169136047363 
vt 0.48827841877937317 0.7258272171020508 
vt 0.42816704511642456 0.7844531536102295 
vt 0.3687601387500763 0.843425989151001 
vt 0.3118187189102173 0.9037864208221436 
vt 0.2625086009502411 0.9712004661560059 
vt 0.7597187757492065 0.028791500255465508 
vt 0.7770947217941284 0.03515131399035454 
vt 0.7062994837760925 0.08949882537126541 
vt 0.7194488644599915 0.10025269538164139 
vt 0.6443096399307251 0.1462746262550354 
vt 0.6564024090766907 0.1583004593849182 
vt 0.580793559551239 0.20339733362197876 
vt 0.592299222946167 0.21553879976272583 
vt 0.5172774791717529 0.2613294720649719 
vt 0.5280787348747253 0.27300840616226196 
vt 0.45141324400901794 0.3172958493232727 
vt 0.4642103910446167 0.331056147813797 
vt 0.3898930251598358 0.3781187832355499 
vt 0.40128132700920105 0.3904915153980255 
vt 0.3280206024646759 0.438247948884964 
vt 0.33940887451171875 0.4506206810474396 
vt 0.26732221245765686 0.4988396465778351 
vt 0.27847567200660706 0.5109810829162598 
vt 0.20732825994491577 0.5587375164031982 
vt 0.21836432814598083 0.5712258815765381 
vt 0.1478039175271988 0.6169009208679199 
vt 0.15837037563323975 0.6301987171173096 
vt 0.08804477751255035 0.6707859039306641 
vt 0.09696755558252335 0.6852400302886963 
vt 0.02523309923708439 0.7127606868743896 
vt 0.029459679499268532 0.7302212715148926 
vt 0.9841971397399902 0.2978695034980774 
vt 0.9868974685668945 0.3159082531929016 
vt 0.9158674478530884 0.3348720371723175 
vt 0.9234987497329712 0.349904328584671 
vt 0.8529383540153503 0.3839004337787628 
vt 0.8625655770301819 0.3976607620716095 
vt 0.791770339012146 0.4380166828632355 
vt 0.8022193908691406 0.45096758008003235 
vt 0.7308371663093567 0.49421432614326477 
vt 0.7417558431625366 0.5068182945251465 
vt 0.6700213551521301 0.5513370037078857 
vt 0.6811748147010803 0.5637097358703613 
vt 0.6093229651451111 0.6090378761291504 
vt 0.6207112669944763 0.6211793422698975 
vt 0.5487419962882996 0.6673169136047363 
vt 0.5603650808334351 0.6793427467346191 
vt 0.48827841877937317 0.7258272171020508 
vt 0.5001363158226013 0.7376217842102051 
vt 0.42816704511642456 0.7844531536102295 
vt 0.44025978446006775 0.7960164546966553 
vt 0.3687601387500763 0.843425989151001 
vt 0.38143986463546753 0.8542954921722412 
vt 0.3118187189102173 0.9037864208221436 
vt 0.32590731978416443 0.9132683277130127 
vt 0.2625086009502411 0.9712004661560059 
vt 0.28070637583732605 0.9759414196014404 
s on 
f 1/1/1 2/2/2 3/3/3 
f 2/2/2 4/4/4 3/3/3 
f 3/3/3 4/4/4 5/5/5 
f 4/4/4 6/6/6 5/5/5 
f 5/5/5 6/6/6 7/7/7 
f 6/6/6 8/8/8 7/7/7 
f 7/7/7 8/8/8 9/9/9 
f 8/8/8 10/10/10 9/9/9 
f 9/9/9 10/10/10 11/11/11 
f 10/10/10 12/12/12 11/11/11 
f 11/11/11 12/12/12 13/13/13 
f 12/12/12 14/14/14 13/13/13 
f 13/13/13 14/14/14 15/15/15 
f 14/14/14 16/16/16 15/15/15 
f 15/15/15 16/16/16 17/17/17 
f 16/16/16 18/18/18 17/17/17 
f 17/17/17 18/18/18 19/19/19 
f 18/18/18 20/20/20 19/19/19 
f 19/19/19 20/20/20 21/21/21 
f 20/20/20 22/22/22 21/21/21 
f 21/21/21 22/22/22 23/23/23 
f 22/22/22 24/24/24 23/23/23 
f 23/23/23 24/24/24 25/25/25 
f 24/24/24 26/26/26 25/25/25 
f 25/25/25 26/26/26 26/26/26 
f 26/26/26 2/2/2 26/26/26 
f 26/26/26 2/2/2 2/2/2 
f 2/2/2 27/27/27 2/2/2 
f 2/2/2 27/27/27 4/4/4 
f 27/27/27 28/28/28 4/4/4 
f 4/4/4 28/28/28 6/6/6 
f 28/28/28 29/29/29 6/6/6 
f 6/6/6 29/29/29 8/8/8 
f 29/29/29 30/30/30 8/8/8 
f 8/8/8 30/30/30 10/10/10 
f 30/30/30 31/31/31 10/10/10 
f 10/10/10 31/31/31 12/12/12 
f 31/31/31 32/32/32 12/12/12 
f 12/12/12 32/32/32 14/14/14 
f 32/32/32 33/33/33 14/14/14 
f 14/14/14 33/33/33 16/16/16 
f 33/33/33 34/34/34 16/16/16 
f 16/16/16 34/34/34 18/18/18 
f 34/34/34 35/35/35 18/18/18 
f 18/18/18 35/35/35 20/20/20 
f 35/35/35 36/36/36 20/20/20 
f 20/20/20 36/36/36 22/22/22 
f 36/36/36 37/37/37 22/22/22 
f 22/22/22 37/37/37 24/24/24 
f 37/37/37 38/38/38 24/24/24 
f 24/24/24 38/38/38 26/26/26 
f 38/38/38 39/39/39 26/26/26 
f 26/26/26 39/39/39 39/39/39 
f 39/39/39 40/40/40 39/39/39 
f 39/39/39 40/40/40 40/40/40 
f 40/40/40 41/41/41 40/40/40 
f 40/40/40 41/41/41 42/42/42 
f 41/41/41 43/43/43 42/42/42 
f 42/42/42 43/43/43 44/44/44 
f 43/43/43 45/45/45 44/44/44 
f 44/44/44 45/45/45 46/46/46 
f 45/45/45 47/47/47 46/46/46 
f 46/46/46 47/47/47 48/48/48 
f 47/47/47 49/49/49 48/48/48 
f 48/48/48 49/49/49 50/50/50 
f 49/49/49 51/51/51 50/50/50 
f 50/50/50 51/51/51 52/52/52 
f 51/51/51 53/53/53 52/52/52 
f 52/52/52 53/53/53 54/54/54 
f 53/53/53 55/55/55 54/54/54 
f 54/54/54 55/55/55 56/56/56 
f 55/55/55 57/57/57 56/56/56 
f 56/56/56 57/57/57 58/58/58 
f 57/57/57 59/59/59 58/58/58 
f 58/58/58 59/59/59 60/60/60 
f 59/59/59 61/61/61 60/60/60 
f 60/60/60 61/61/61 62/62/62 
f 61/61/61 63/63/63 62/62/62 
f 62/62/62 63/63/63 64/64/64 
f 63/63/63 65/65/65 64/64/64 
f 64/64/64 65/65/65 65/65/65 
f 65/65/65 66/66/66 65/65/65 
f 65/65/65 66/66/66 66/66/66 
f 66/66/66 67/67/67 66/66/66 
f 66/66/66 67/67/67 68/68/68 
f 67/67/67 69/69/69 68/68/68 
f 68/68/68 69/69/69 70/70/70 
f 69/69/69 71/71/71 70/70/70 
f 70/70/70 71/71/71 72/72/72 
f 71/71/71 73/73/73 72/72/72 
f 72/72/72 73/73/73 74/74/74 
f 73/73/73 75/75/75 74/74/74 
f 74/74/74 75/75/75 76/76/76 
f 75/75/75 77/77/77 76/76/76 
f 76/76/76 77/77/77 78/78/78 
f 77/77/77 79/79/79 78/78/78 
f 78/78/78 79/79/79 80/80/80 
f 79/79/79 81/81/81 80/80/80 
f 80/80/80 81/81/81 82/82/82 
f 81/81/81 83/83/83 82/82/82 
f 82/82/82 83/83/83 84/84/84 
f 83/83/83 85/85/85 84/84/84 
f 84/84/84 85/85/85 86/86/86 
f 85/85/85 87/87/87 86/86/86 
f 86/86/86 87/87/87 88/88/88 
f 87/87/87 89/89/89 88/88/88 
f 88/88/88 89/89/89 90/90/90 
f 89/89/89 91/91/91 90/90/90 

