mtllib model_1.mtl
o model_1
v -0.7804410457611084 7.880923748016357 4.570902347564697 
v -1.2804536819458008 7.501668930053711 4.558578014373779 
v -1.1137827634811401 7.315232753753662 4.874526500701904 
v -1.5899853706359863 6.893800735473633 4.625303745269775 
v -1.2804536819458008 6.857641696929932 5.026001453399658 
v -1.6852257251739502 6.1411333084106445 4.706655025482178 
v -1.3518840074539185 6.193533420562744 5.12905216217041 
v -1.5899853706359863 5.413116931915283 4.706906318664551 
v -1.2804536819458008 5.49308967590332 5.101203918457031 
v -1.2804536819458008 4.801598072052002 4.707382678985596 
v -1.1137827634811401 5.0216240882873535 5.000930309295654 
v -0.7328207492828369 4.8253302574157715 5.138004779815674 
v -0.7804410457611084 5.448532581329346 5.349526882171631 
v -0.16137775778770447 5.394847869873047 5.432226657867432 
v -0.16137775778770447 6.212518692016602 5.473549842834473 
v 0.48149561882019043 6.178739547729492 5.3890252113342285 
v 0.43387535214424133 6.9292168617248535 5.267924785614014 
v 0.9338880181312561 6.857641696929932 5.026001453399658 
v 0.7672171592712402 7.315232753753662 4.874526500701904 
v 0.9338880181312561 7.501668930053711 4.558578014373779 
v 0.3862551152706146 7.5254011154174805 4.989200115203857 
v 0.43387535214424133 7.880923748016357 4.570902347564697 
v -0.16137775778770447 7.616151332855225 5.050649642944336 
v -0.16137775778770447 7.999246597290039 4.604251861572266 
v -0.7328207492828369 7.5254011154174805 4.989200115203857 
v -0.7804410457611084 6.9292168617248535 5.267924785614014 
v -0.16137775778770447 6.991663932800293 5.344223976135254 
v -0.8280612826347351 6.178739547729492 5.3890252113342285 
v -0.7804410457611084 4.425994396209717 4.761308193206787 
v -0.16137775778770447 4.74188232421875 5.209054470062256 
v 0.43387535214424133 5.448532581329346 5.349526882171631 
v 1.0053184032440186 6.193533420562744 5.12905216217041 
v 1.2434196472167969 6.893800735473633 4.625303745269775 
v -0.16137775778770447 4.3120527267456055 4.80745792388916 
v 0.3862551152706146 4.8253302574157715 5.138004779815674 
v 0.9338880181312561 5.49308967590332 5.101203918457031 
v 1.3386601209640503 6.1411333084106445 4.706655025482178 
v 0.43387535214424133 4.425994396209717 4.761308193206787 
v 0.7672171592712402 5.0216240882873535 5.000930309295654 
v 1.2434196472167969 5.413116931915283 4.706906318664551 
v 0.9338880181312561 4.801598072052002 4.707382678985596 
vn -4.312373638153076 9.30947208404541 8.286684036254883 
vn -8.283369064331055 7.2455363273620605 8.207083702087402 
vn -7.804412364959717 6.967440128326416 9.481868743896484 
vn -10.785192489624023 4.028769016265869 8.57771110534668 
vn -9.114421844482422 4.074859142303467 11.275986671447754 
vn -11.562801361083984 0.4487602710723877 8.903071403503418 
vn -9.591423988342285 0.6646632552146912 12.060365676879883 
vn -10.785192489624023 -3.061774253845215 8.968481063842773 
vn -9.114421844482422 -2.811074733734131 11.65548038482666 
vn -8.283369064331055 -6.299787998199463 8.953585624694824 
vn -7.804412364959717 -5.883291244506836 10.190091133117676 
vn -4.23414421081543 -6.811467170715332 11.875946998596191 
vn -4.4757561683654785 -2.812246084213257 15.306312561035156 
vn 0.050870828330516815 -2.956620931625366 16.22791862487793 
vn 0 0.9410043358802795 17.074594497680664 
vn 4.695971488952637 0.8826818466186523 16.016328811645508 
vn 4.439609527587891 4.5066447257995605 14.902957916259766 
vn 9.092863082885742 4.112758636474609 11.273898124694824 
vn 7.840582370758057 6.937934875488281 9.483494758605957 
vn 8.283369064331055 7.2455363273620605 8.207083702087402 
vn 4.280442237854004 8.057528495788574 11.056496620178223 
vn 4.264902114868164 9.324878692626953 8.285835266113281 
vn 0.05107153579592705 8.506709098815918 11.628179550170898 
vn -0.025545665994286537 9.944600105285645 8.379741668701172 
vn -4.23414421081543 8.075251579284668 11.055519104003906 
vn -4.4757561683654785 4.477209568023682 14.904580116271973 
vn 0.050870828330516815 4.72198486328125 15.804739952087402 
vn -4.695971488952637 0.8826818466186523 16.016328811645508 
vn -4.312373638153076 -8.342476844787598 9.25950813293457 
vn 0.05107153579592705 -7.177381992340088 12.492551803588867 
vn 4.439609527587891 -2.8416810035705566 15.307934761047363 
vn 9.591423988342285 0.6646632552146912 12.060365676879883 
vn 10.804140090942383 3.9899888038635254 8.579848289489746 
vn -0.025545665994286537 -8.963533401489258 9.421795845031738 
vn 4.280442237854004 -6.793744087219238 11.874970436096191 
vn 9.092863082885742 -2.8489739894866943 11.65756893157959 
vn 11.562914848327637 0.4905335605144501 8.900769233703613 
vn 4.264902114868164 -8.35788345336914 9.260356903076172 
vn 7.840582370758057 -5.853786468505859 10.188464164733887 
vn 10.804140090942383 -3.022994041442871 8.966343879699707 
vn 8.283369064331055 -6.299787998199463 8.953585624694824 
vt 0.3179899752140045 0.9248315095901489 
vt 0.1669132262468338 0.836060106754303 
vt 0.2430029809474945 0.7601909041404724 
vt 0.07858294993638992 0.68465256690979 
vt 0.21521367132663727 0.6472693085670471 
vt 0.04836760088801384 0.5032501816749573 
vt 0.20539920032024384 0.5034707188606262 
vt 0.07913432270288467 0.321958065032959 
vt 0.21565477550029755 0.3597823977470398 
vt 0.16790570318698883 0.17088133096694946 
vt 0.2437749058008194 0.24697107076644897 
vt 0.3566964864730835 0.21918177604675293 
vt 0.3560348451137543 0.35956186056137085 
vt 0.5002745389938354 0.35294535756111145 
vt 0.5000540018081665 0.5039118528366089 
vt 0.6510204672813416 0.5042426586151123 
vt 0.6439628601074219 0.6483720541000366 
vt 0.7843429446220398 0.6481515169143677 
vt 0.7562228441238403 0.7609628438949585 
vt 0.8320920467376709 0.837052583694458 
vt 0.643301248550415 0.7887521386146545 
vt 0.6806844472885132 0.9253828525543213 
vt 0.49950262904167175 0.7985666394233704 
vt 0.4992820620536804 0.9555982351303101 
vt 0.3558143079280853 0.7883110642433167 
vt 0.355593740940094 0.6479309797286987 
vt 0.4997231662273407 0.6549885869026184 
vt 0.3489772379398346 0.5036912560462952 
vt 0.31931328773498535 0.08255104720592499 
vt 0.5004950761795044 0.2093673050403595 
vt 0.6444039940834045 0.36000296473503113 
vt 0.7945985198020935 0.5044631958007812 
vt 0.9208633899688721 0.6859758496284485 
vt 0.5007156729698181 0.052335698157548904 
vt 0.6441833972930908 0.2196228802204132 
vt 0.7847840785980225 0.36066460609436035 
vt 0.9516301155090332 0.5046837329864502 
vt 0.6820077300071716 0.08310242742300034 
vt 0.7569947242736816 0.24774299561977386 
vt 0.9214147925376892 0.3232813775539398 
vt 0.8330845236778259 0.1718737930059433 
s on 
f 1/1/1 2/2/2 3/3/3 
f 2/2/2 4/4/4 3/3/3 
f 3/3/3 4/4/4 5/5/5 
f 4/4/4 6/6/6 5/5/5 
f 5/5/5 6/6/6 7/7/7 
f 6/6/6 8/8/8 7/7/7 
f 7/7/7 8/8/8 9/9/9 
f 8/8/8 10/10/10 9/9/9 
f 9/9/9 10/10/10 11/11/11 
f 10/10/10 12/12/12 11/11/11 
f 11/11/11 12/12/12 13/13/13 
f 12/12/12 14/14/14 13/13/13 
f 13/13/13 14/14/14 15/15/15 
f 14/14/14 16/16/16 15/15/15 
f 15/15/15 16/16/16 17/17/17 
f 16/16/16 18/18/18 17/17/17 
f 17/17/17 18/18/18 19/19/19 
f 18/18/18 20/20/20 19/19/19 
f 19/19/19 20/20/20 21/21/21 
f 20/20/20 22/22/22 21/21/21 
f 21/21/21 22/22/22 23/23/23 
f 22/22/22 24/24/24 23/23/23 
f 23/23/23 24/24/24 25/25/25 
f 24/24/24 1/1/1 25/25/25 
f 25/25/25 1/1/1 3/3/3 
f 1/1/1 3/3/3 3/3/3 
f 3/3/3 3/3/3 3/3/3 
f 3/3/3 5/5/5 3/3/3 
f 3/3/3 5/5/5 25/25/25 
f 5/5/5 26/26/26 25/25/25 
f 25/25/25 26/26/26 23/23/23 
f 26/26/26 27/27/27 23/23/23 
f 23/23/23 27/27/27 21/21/21 
f 27/27/27 17/17/17 21/21/21 
f 21/21/21 17/17/17 19/19/19 
f 17/17/17 19/19/19 19/19/19 
f 19/19/19 19/19/19 17/17/17 
f 19/19/19 17/17/17 17/17/17 
f 17/17/17 17/17/17 17/17/17 
f 17/17/17 27/27/27 17/17/17 
f 17/17/17 27/27/27 15/15/15 
f 27/27/27 28/28/28 15/15/15 
f 15/15/15 28/28/28 13/13/13 
f 28/28/28 9/9/9 13/13/13 
f 13/13/13 9/9/9 11/11/11 
f 9/9/9 11/11/11 11/11/11 
f 11/11/11 11/11/11 9/9/9 
f 11/11/11 9/9/9 9/9/9 
f 9/9/9 9/9/9 9/9/9 
f 9/9/9 28/28/28 9/9/9 
f 9/9/9 28/28/28 7/7/7 
f 28/28/28 26/26/26 7/7/7 
f 7/7/7 26/26/26 5/5/5 
f 26/26/26 5/5/5 5/5/5 
f 5/5/5 5/5/5 10/10/10 
f 5/5/5 10/10/10 10/10/10 
f 10/10/10 10/10/10 10/10/10 
f 10/10/10 29/29/29 10/10/10 
f 10/10/10 29/29/29 12/12/12 
f 29/29/29 30/30/30 12/12/12 
f 12/12/12 30/30/30 14/14/14 
f 30/30/30 31/31/31 14/14/14 
f 14/14/14 31/31/31 16/16/16 
f 31/31/31 32/32/32 16/16/16 
f 16/16/16 32/32/32 18/18/18 
f 32/32/32 33/33/33 18/18/18 
f 18/18/18 33/33/33 20/20/20 
f 33/33/33 20/20/20 20/20/20 
f 20/20/20 20/20/20 29/29/29 
f 20/20/20 29/29/29 29/29/29 
f 29/29/29 29/29/29 29/29/29 
f 29/29/29 34/34/34 29/29/29 
f 29/29/29 34/34/34 30/30/30 
f 34/34/34 35/35/35 30/30/30 
f 30/30/30 35/35/35 31/31/31 
f 35/35/35 36/36/36 31/31/31 
f 31/31/31 36/36/36 32/32/32 
f 36/36/36 37/37/37 32/32/32 
f 32/32/32 37/37/37 33/33/33 
f 37/37/37 33/33/33 33/33/33 
f 33/33/33 33/33/33 34/34/34 
f 33/33/33 34/34/34 34/34/34 
f 34/34/34 34/34/34 34/34/34 
f 34/34/34 38/38/38 34/34/34 
f 34/34/34 38/38/38 35/35/35 
f 38/38/38 39/39/39 35/35/35 
f 35/35/35 39/39/39 36/36/36 
f 39/39/39 40/40/40 36/36/36 
f 36/36/36 40/40/40 37/37/37 
f 40/40/40 37/37/37 37/37/37 
f 37/37/37 37/37/37 40/40/40 
f 37/37/37 40/40/40 40/40/40 
f 40/40/40 40/40/40 40/40/40 
f 40/40/40 39/39/39 40/40/40 
f 40/40/40 39/39/39 41/41/41 
f 39/39/39 38/38/38 41/41/41 
f 28/28/28 27/27/27 26/26/26 

