mtllib model_5.mtl
o model_5
v -0.5536047220230103 17.482147216796875 -8.255803108215332 
v -0.568832278251648 17.48548126220703 -8.255803108215332 
v -0.5427427291870117 17.53175926208496 -8.213174819946289 
v -0.5579702854156494 17.535093307495117 -8.213174819946289 
v -0.568832278251648 17.48548126220703 -8.255803108215332 
v -0.5536047220230103 17.482147216796875 -8.255803108215332 
v -0.5830882787704468 17.420366287231445 -8.26865291595459 
v -0.5678607225418091 17.41703224182129 -8.26865291595459 
v -0.5533077120780945 17.5563907623291 -8.151898384094238 
v -0.5380801558494568 17.553056716918945 -8.151898384094238 
v -0.5579702854156494 17.535093307495117 -8.213174819946289 
v -0.5427427291870117 17.53175926208496 -8.213174819946289 
v -0.5419725179672241 17.47960090637207 -8.255803108215332 
v -0.5536047220230103 17.482147216796875 -8.255803108215332 
v -0.5311105251312256 17.529212951660156 -8.213174819946289 
v -0.5427427291870117 17.53175926208496 -8.213174819946289 
v -0.5497469305992126 17.499767303466797 -8.035547256469727 
v -0.5649744868278503 17.503101348876953 -8.035547256469727 
v -0.5633658766746521 17.437562942504883 -8.01202392578125 
v -0.5785934329032898 17.44089698791504 -8.01202392578125 
v -0.5562285780906677 17.414485931396484 -8.26865291595459 
v -0.5678607225418091 17.41703224182129 -8.26865291595459 
v -0.5419725179672241 17.47960090637207 -8.255803108215332 
v -0.5536047220230103 17.482147216796875 -8.255803108215332 
v -0.5772978067398071 17.37392807006836 -8.02499771118164 
v -0.565665602684021 17.371381759643555 -8.02499771118164 
v -0.5633658766746521 17.437562942504883 -8.01202392578125 
v -0.5517337322235107 17.435016632080078 -8.01202392578125 
v -0.565665602684021 17.371381759643555 -8.02499771118164 
v -0.5645460486412048 17.376495361328125 -8.03559684753418 
v -0.5517337322235107 17.435016632080078 -8.01202392578125 
v -0.5519814491271973 17.433883666992188 -8.026168823242188 
v -0.5381147265434265 17.497220993041992 -8.035547256469727 
v -0.5399123430252075 17.489009857177734 -8.045029640197754 
v -0.5288808345794678 17.539398193359375 -8.085870742797852 
v -0.5315800309181213 17.527069091796875 -8.090940475463867 
v -0.5264125466346741 17.550670623779297 -8.149877548217773 
v -0.5293297171592712 17.5373477935791 -8.148760795593262 
v -0.5311105251312256 17.529212951660156 -8.213174819946289 
v -0.5335974097251892 17.517854690551758 -8.206119537353516 
v -0.5419725179672241 17.47960090637207 -8.255803108215332 
v -0.5434162020683289 17.473007202148438 -8.245079040527344 
v -0.5562285780906677 17.414485931396484 -8.26865291595459 
v -0.5559808015823364 17.415616989135742 -8.254508018493652 
v -0.5695233941078186 17.353759765625 -8.245253562927246 
v -0.5680499076843262 17.360490798950195 -8.23564624786377 
v -0.58115553855896 17.356307983398438 -8.245253562927246 
v -0.5963831543922424 17.359642028808594 -8.245253562927246 
v -0.5678607225418091 17.41703224182129 -8.26865291595459 
v -0.5830882787704468 17.420366287231445 -8.26865291595459 
v -0.5405129790306091 17.54194450378418 -8.085870742797852 
v -0.5288808345794678 17.539398193359375 -8.085870742797852 
v -0.5380801558494568 17.553056716918945 -8.151898384094238 
v -0.5264125466346741 17.550670623779297 -8.149877548217773 
v -0.5497469305992126 17.499767303466797 -8.035547256469727 
v -0.5381147265434265 17.497220993041992 -8.035547256469727 
v -0.5405129790306091 17.54194450378418 -8.085870742797852 
v -0.5288808345794678 17.539398193359375 -8.085870742797852 
v -0.5380801558494568 17.553056716918945 -8.151898384094238 
v -0.5264125466346741 17.550670623779297 -8.149877548217773 
v -0.5427427291870117 17.53175926208496 -8.213174819946289 
v -0.5311105251312256 17.529212951660156 -8.213174819946289 
v -0.5381147265434265 17.497220993041992 -8.035547256469727 
v -0.5497469305992126 17.499767303466797 -8.035547256469727 
v -0.5517337322235107 17.435016632080078 -8.01202392578125 
v -0.5633658766746521 17.437562942504883 -8.01202392578125 
v -0.5405129790306091 17.54194450378418 -8.085870742797852 
v -0.5557405352592468 17.545278549194336 -8.085870742797852 
v -0.5497469305992126 17.499767303466797 -8.035547256469727 
v -0.5649744868278503 17.503101348876953 -8.035547256469727 
v -0.5910816788673401 17.38385581970215 -8.035721778869629 
v -0.5925253629684448 17.377262115478516 -8.02499771118164 
v -0.5788412094116211 17.43976402282715 -8.026168823242188 
v -0.5785934329032898 17.44089698791504 -8.01202392578125 
v -0.5667721033096313 17.494890213012695 -8.045029640197754 
v -0.5649744868278503 17.503101348876953 -8.035547256469727 
v -0.5587639212608337 17.531469345092773 -8.090815544128418 
v -0.5557405352592468 17.545278549194336 -8.085870742797852 
v -0.5562248826026917 17.543066024780273 -8.150781631469727 
v -0.5533077120780945 17.5563907623291 -8.151898384094238 
v -0.5604571104049683 17.52373504638672 -8.206119537353516 
v -0.5579702854156494 17.535093307495117 -8.213174819946289 
v -0.5702759623527527 17.4788875579834 -8.245079040527344 
v -0.568832278251648 17.48548126220703 -8.255803108215332 
v -0.5828405618667603 17.421497344970703 -8.254508018493652 
v -0.5830882787704468 17.420366287231445 -8.26865291595459 
v -0.5945855379104614 17.36785125732422 -8.235771179199219 
v -0.5963831543922424 17.359642028808594 -8.245253562927246 
v -0.5633658766746521 17.437562942504883 -8.01202392578125 
v -0.5785934329032898 17.44089698791504 -8.01202392578125 
v -0.5772978067398071 17.37392807006836 -8.02499771118164 
v -0.5925253629684448 17.377262115478516 -8.02499771118164 
v -0.5557405352592468 17.545278549194336 -8.085870742797852 
v -0.5405129790306091 17.54194450378418 -8.085870742797852 
v -0.5533077120780945 17.5563907623291 -8.151898384094238 
v -0.5380801558494568 17.553056716918945 -8.151898384094238 
v -0.5695233941078186 17.353759765625 -8.245253562927246 
v -0.58115553855896 17.356307983398438 -8.245253562927246 
v -0.5562285780906677 17.414485931396484 -8.26865291595459 
v -0.5678607225418091 17.41703224182129 -8.26865291595459 
vn 26.90593719482422 122.89466094970703 -147.92141723632812 
vn 26.90593719482422 122.89466094970703 -147.92141723632812 
vn 26.90593719482422 122.89466094970703 -147.92141723632812 
vn 26.90593719482422 122.89466094970703 -147.92141723632812 
vn 7.453540802001953 34.0445442199707 -191.03184509277344 
vn 7.453540802001953 34.0445442199707 -191.03184509277344 
vn 7.453540802001953 34.0445442199707 -191.03184509277344 
vn 7.453540802001953 34.0445442199707 -191.03184509277344 
vn 39.129302978515625 178.72569274902344 -65.06778717041016 
vn 39.129302978515625 178.72569274902344 -65.06778717041016 
vn 39.129302978515625 178.72569274902344 -65.06778717041016 
vn 39.129302978515625 178.72569274902344 -65.06778717041016 
vn 26.90593719482422 122.89466094970703 -147.92141723632812 
vn 26.90593719482422 122.89466094970703 -147.92141723632812 
vn 26.90593719482422 122.89466094970703 -147.92141723632812 
vn 26.90593719482422 122.89466094970703 -147.92141723632812 
vn 14.001457214355469 63.95259094238281 182.8162384033203 
vn 14.001457214355469 63.95259094238281 182.8162384033203 
vn 14.001457214355469 63.95259094238281 182.8162384033203 
vn 14.001457214355469 63.95259094238281 182.8162384033203 
vn 7.453540802001953 34.0445442199707 -191.03184509277344 
vn 7.453540802001953 34.0445442199707 -191.03184509277344 
vn 7.453540802001953 34.0445442199707 -191.03184509277344 
vn 7.453540802001953 34.0445442199707 -191.03184509277344 
vn -13.916875839233398 -32.624107360839844 191.0314178466797 
vn -13.916875839233398 -32.624107360839844 191.0314178466797 
vn -13.916875839233398 -32.624107360839844 191.0314178466797 
vn -13.916875839233398 -32.624107360839844 191.0314178466797 
vn 1722.9329833984375 -377.2477722167969 -0.4227103590965271 
vn 1722.9329833984375 -377.2477722167969 -0.4227103590965271 
vn 1722.9329833984375 -377.2477722167969 -0.4227103590965271 
vn 1722.9329833984375 -377.2477722167969 -0.4227103590965271 
vn 1722.9329833984375 -377.2477722167969 -0.4227103590965271 
vn 1722.9329833984375 -377.2477722167969 -0.4227103590965271 
vn 1722.9329833984375 -377.2477722167969 -0.4227103590965271 
vn 1722.9329833984375 -377.2477722167969 -0.4227103590965271 
vn 1722.9329833984375 -377.2477722167969 -0.4227103590965271 
vn 1722.9329833984375 -377.2477722167969 -0.4227103590965271 
vn 1722.9329833984375 -377.2477722167969 -0.4227103590965271 
vn 1722.9329833984375 -377.2477722167969 -0.4227103590965271 
vn 1722.9329833984375 -377.2477722167969 -0.4227103590965271 
vn 1722.9329833984375 -377.2477722167969 -0.4227103590965271 
vn 1722.94775390625 -377.1801452636719 0.42292752861976624 
vn 1722.94775390625 -377.1801452636719 0.42292752861976624 
vn 1722.94775390625 -377.1801452636719 0.42292752861976624 
vn 1722.94775390625 -377.1801452636719 0.42292752861976624 
vn -7.475722789764404 -65.3758316040039 -182.81666564941406 
vn -7.475722789764404 -65.3758316040039 -182.81666564941406 
vn -7.475722789764404 -65.3758316040039 -182.81666564941406 
vn -7.475722789764404 -65.3758316040039 -182.81666564941406 
vn 40.8720588684082 186.68585205078125 34.433433532714844 
vn 40.8720588684082 186.68585205078125 34.433433532714844 
vn 40.8720588684082 186.68585205078125 34.433433532714844 
vn 40.8720588684082 186.68585205078125 34.433433532714844 
vn 31.69457244873047 144.76707458496094 125.48194122314453 
vn 31.69457244873047 144.76707458496094 125.48194122314453 
vn 31.69457244873047 144.76707458496094 125.48194122314453 
vn 31.69457244873047 144.76707458496094 125.48194122314453 
vn 39.129302978515625 178.72569274902344 -65.06778717041016 
vn 39.129302978515625 178.72569274902344 -65.06778717041016 
vn 39.129302978515625 178.72569274902344 -65.06778717041016 
vn 39.129302978515625 178.72569274902344 -65.06778717041016 
vn 14.001457214355469 63.95259094238281 182.8162384033203 
vn 14.001457214355469 63.95259094238281 182.8162384033203 
vn 14.001457214355469 63.95259094238281 182.8162384033203 
vn 14.001457214355469 63.95259094238281 182.8162384033203 
vn 31.69457244873047 144.76707458496094 125.48194122314453 
vn 31.69457244873047 144.76707458496094 125.48194122314453 
vn 31.69457244873047 144.76707458496094 125.48194122314453 
vn 31.69457244873047 144.76707458496094 125.48194122314453 
vn -1722.94775390625 377.1801452636719 -0.42292752861976624 
vn -1722.94775390625 377.1801452636719 -0.42292752861976624 
vn -1722.94775390625 377.1801452636719 -0.42292752861976624 
vn -1722.94775390625 377.1801452636719 -0.42292752861976624 
vn -1722.94775390625 377.1801452636719 -0.42292752861976624 
vn -1722.94775390625 377.1801452636719 -0.42292752861976624 
vn -1722.94775390625 377.1801452636719 -0.42292752861976624 
vn -1722.94775390625 377.1801452636719 -0.42292752861976624 
vn -1722.94775390625 377.1801452636719 -0.42292752861976624 
vn -1722.94775390625 377.1801452636719 -0.42292752861976624 
vn -1722.94775390625 377.1801452636719 -0.42292752861976624 
vn -1722.94775390625 377.1801452636719 -0.42292752861976624 
vn -1722.94775390625 377.1801452636719 -0.42292752861976624 
vn -1722.94775390625 377.1801452636719 -0.42292752861976624 
vn -1722.94775390625 377.1801452636719 -0.42292752861976624 
vn -1722.94775390625 377.1801452636719 -0.42292752861976624 
vn -1722.9329833984375 377.2477722167969 0.4227103590965271 
vn -1722.9329833984375 377.2477722167969 0.4227103590965271 
vn -13.916875839233398 -32.624107360839844 191.0314178466797 
vn -13.916875839233398 -32.624107360839844 191.0314178466797 
vn -13.916875839233398 -32.624107360839844 191.0314178466797 
vn -13.916875839233398 -32.624107360839844 191.0314178466797 
vn 40.8720588684082 186.68585205078125 34.433433532714844 
vn 40.8720588684082 186.68585205078125 34.433433532714844 
vn 40.8720588684082 186.68585205078125 34.433433532714844 
vn 40.8720588684082 186.68585205078125 34.433433532714844 
vn -7.475722789764404 -65.3758316040039 -182.81666564941406 
vn -7.475722789764404 -65.3758316040039 -182.81666564941406 
vn -7.475722789764404 -65.3758316040039 -182.81666564941406 
vn -7.475722789764404 -65.3758316040039 -182.81666564941406 
vt 0.8987780213356018 0.860548198223114 
vt 0.8529102206230164 0.858301043510437 
vt 0.8998653888702393 0.8389325737953186 
vt 0.8539976477622986 0.8366854190826416 
vt 0.8529102206230164 0.858301043510437 
vt 0.8987780213356018 0.860548198223114 
vt 0.8519217371940613 0.8799166679382324 
vt 0.897789478302002 0.8820568323135376 
vt 0.855085015296936 0.815176784992218 
vt 0.9009528160095215 0.8174239993095398 
vt 0.8539976477622986 0.8366854190826416 
vt 0.8998653888702393 0.8389325737953186 
vt 0.6493719220161438 0.8301579356193542 
vt 0.6145756840705872 0.8264126777648926 
vt 0.6516455411911011 0.8086493015289307 
vt 0.6168493032455444 0.804904043674469 
vt 0.9030287265777588 0.7742997407913208 
vt 0.8571609258651733 0.7720525860786438 
vt 0.9040172696113586 0.7526841163635254 
vt 0.8581494688987732 0.7504369616508484 
vt 0.6470983028411865 0.8515595197677612 
vt 0.6123020648956299 0.8479212522506714 
vt 0.6493719220161438 0.8301579356193542 
vt 0.6145756840705872 0.8264126777648926 
vt 0.6282173991203308 0.697575032711029 
vt 0.6630136370658875 0.7013202905654907 
vt 0.6259437799453735 0.7190836071968079 
vt 0.6607400178909302 0.7227218747138977 
vt 0.10548270493745804 0.2796017825603485 
vt 0.11734506487846375 0.28484517335891724 
vt 0.09539970010519028 0.34380656480789185 
vt 0.10834944248199463 0.3424154818058014 
vt 0.11882786452770233 0.40458711981773376 
vt 0.12940512597560883 0.3968825340270996 
vt 0.1695394515991211 0.44535717368125916 
vt 0.17477865517139435 0.43347927927970886 
vt 0.23379389941692352 0.45541590452194214 
vt 0.23240995407104492 0.44246795773506165 
vt 0.29458850622177124 0.4319811761379242 
vt 0.28687795996665955 0.42138737440109253 
vt 0.3354147970676422 0.38125938177108765 
vt 0.3234535753726959 0.3760159909725189 
vt 0.3453989326953888 0.3169475495815277 
vt 0.33244919776916504 0.31844568252563477 
vt 0.32197079062461853 0.25627401471138 
vt 0.31139349937438965 0.26397860050201416 
vt 0.8967021107673645 0.903672456741333 
vt 0.850834310054779 0.9014252424240112 
vt 0.897789478302002 0.8820568323135376 
vt 0.8519217371940613 0.8799166679382324 
vt 0.621396541595459 0.7619938254356384 
vt 0.6561927795410156 0.7657391428947449 
vt 0.6191229224205017 0.783502459526062 
vt 0.6539191603660583 0.7871407270431519 
vt 0.6236701607704163 0.7404852509498596 
vt 0.6584663987159729 0.7442305088043213 
vt 0.621396541595459 0.7619938254356384 
vt 0.6561927795410156 0.7657391428947449 
vt 0.6191229224205017 0.783502459526062 
vt 0.6539191603660583 0.7871407270431519 
vt 0.6168493032455444 0.804904043674469 
vt 0.6516455411911011 0.8086493015289307 
vt 0.6584663987159729 0.7442305088043213 
vt 0.6236701607704163 0.7404852509498596 
vt 0.6607400178909302 0.7227218747138977 
vt 0.6259437799453735 0.7190836071968079 
vt 0.9019412994384766 0.7958083748817444 
vt 0.8560735583305359 0.7935612201690674 
vt 0.9030287265777588 0.7742997407913208 
vt 0.8571609258651733 0.7720525860786438 
vt 0.37722960114479065 0.05766718089580536 
vt 0.38978394865989685 0.052209772169589996 
vt 0.3860275149345398 0.11502347141504288 
vt 0.3992738127708435 0.11662858724594116 
vt 0.3648729920387268 0.16927652060985565 
vt 0.3753513991832733 0.17708811163902283 
vt 0.31851091980934143 0.204161137342453 
vt 0.3243432343006134 0.21753713488578796 
vt 0.2614727318286896 0.2136848419904709 
vt 0.2599899470806122 0.22706083953380585 
vt 0.20749899744987488 0.1922832429409027 
vt 0.19939304888248444 0.20309105515480042 
vt 0.17112109065055847 0.1468048393726349 
vt 0.1589621752500534 0.1520482301712036 
vt 0.16271859407424927 0.08923453837633133 
vt 0.14947229623794556 0.08762942254543304 
vt 0.1842685490846634 0.035195499658584595 
vt 0.17349356412887573 0.02716990001499653 
vt 0.9040172696113586 0.7526841163635254 
vt 0.8581494688987732 0.7504369616508484 
vt 0.9051046371459961 0.7310685515403748 
vt 0.8592368364334106 0.7289283871650696 
vt 0.8560735583305359 0.7935612201690674 
vt 0.9019412994384766 0.7958083748817444 
vt 0.855085015296936 0.815176784992218 
vt 0.9009528160095215 0.8174239993095398 
vt 0.6448246836662292 0.8730681538581848 
vt 0.6100284457206726 0.8693228363990784 
vt 0.6470983028411865 0.8515595197677612 
vt 0.6123020648956299 0.8479212522506714 
s on 
f 1/1/1 2/2/2 3/3/3 
f 2/2/2 4/4/4 3/3/3 
f 3/3/3 4/4/4 4/4/4 
f 4/4/4 5/5/5 4/4/4 
f 4/4/4 5/5/5 5/5/5 
f 5/5/5 6/6/6 5/5/5 
f 5/5/5 6/6/6 7/7/7 
f 6/6/6 8/8/8 7/7/7 
f 7/7/7 8/8/8 8/8/8 
f 8/8/8 9/9/9 8/8/8 
f 8/8/8 9/9/9 9/9/9 
f 9/9/9 10/10/10 9/9/9 
f 9/9/9 10/10/10 11/11/11 
f 10/10/10 12/12/12 11/11/11 
f 11/11/11 12/12/12 12/12/12 
f 12/12/12 13/13/13 12/12/12 
f 12/12/12 13/13/13 13/13/13 
f 13/13/13 14/14/14 13/13/13 
f 13/13/13 14/14/14 15/15/15 
f 14/14/14 16/16/16 15/15/15 
f 15/15/15 16/16/16 16/16/16 
f 16/16/16 17/17/17 16/16/16 
f 16/16/16 17/17/17 17/17/17 
f 17/17/17 18/18/18 17/17/17 
f 17/17/17 18/18/18 19/19/19 
f 18/18/18 20/20/20 19/19/19 
f 19/19/19 20/20/20 20/20/20 
f 20/20/20 21/21/21 20/20/20 
f 20/20/20 21/21/21 21/21/21 
f 21/21/21 22/22/22 21/21/21 
f 21/21/21 22/22/22 23/23/23 
f 22/22/22 24/24/24 23/23/23 
f 23/23/23 24/24/24 24/24/24 
f 24/24/24 25/25/25 24/24/24 
f 24/24/24 25/25/25 25/25/25 
f 25/25/25 26/26/26 25/25/25 
f 25/25/25 26/26/26 27/27/27 
f 26/26/26 28/28/28 27/27/27 
f 27/27/27 28/28/28 28/28/28 
f 28/28/28 29/29/29 28/28/28 
f 28/28/28 29/29/29 29/29/29 
f 29/29/29 30/30/30 29/29/29 
f 29/29/29 30/30/30 31/31/31 
f 30/30/30 32/32/32 31/31/31 
f 31/31/31 32/32/32 33/33/33 
f 32/32/32 34/34/34 33/33/33 
f 33/33/33 34/34/34 35/35/35 
f 34/34/34 36/36/36 35/35/35 
f 35/35/35 36/36/36 37/37/37 
f 36/36/36 38/38/38 37/37/37 
f 37/37/37 38/38/38 39/39/39 
f 38/38/38 40/40/40 39/39/39 
f 39/39/39 40/40/40 41/41/41 
f 40/40/40 42/42/42 41/41/41 
f 41/41/41 42/42/42 43/43/43 
f 42/42/42 44/44/44 43/43/43 
f 43/43/43 44/44/44 45/45/45 
f 44/44/44 46/46/46 45/45/45 
f 45/45/45 46/46/46 46/46/46 
f 46/46/46 47/47/47 46/46/46 
f 46/46/46 47/47/47 47/47/47 
f 47/47/47 48/48/48 47/47/47 
f 47/47/47 48/48/48 49/49/49 
f 48/48/48 50/50/50 49/49/49 
f 49/49/49 50/50/50 50/50/50 
f 50/50/50 51/51/51 50/50/50 
f 50/50/50 51/51/51 51/51/51 
f 51/51/51 52/52/52 51/51/51 
f 51/51/51 52/52/52 53/53/53 
f 52/52/52 54/54/54 53/53/53 
f 53/53/53 54/54/54 54/54/54 
f 54/54/54 55/55/55 54/54/54 
f 54/54/54 55/55/55 55/55/55 
f 55/55/55 56/56/56 55/55/55 
f 55/55/55 56/56/56 57/57/57 
f 56/56/56 58/58/58 57/57/57 
f 57/57/57 58/58/58 58/58/58 
f 58/58/58 59/59/59 58/58/58 
f 58/58/58 59/59/59 59/59/59 
f 59/59/59 60/60/60 59/59/59 
f 59/59/59 60/60/60 61/61/61 
f 60/60/60 62/62/62 61/61/61 
f 61/61/61 62/62/62 62/62/62 
f 62/62/62 63/63/63 62/62/62 
f 62/62/62 63/63/63 63/63/63 
f 63/63/63 64/64/64 63/63/63 
f 63/63/63 64/64/64 65/65/65 
f 64/64/64 66/66/66 65/65/65 
f 65/65/65 66/66/66 66/66/66 
f 66/66/66 67/67/67 66/66/66 
f 66/66/66 67/67/67 67/67/67 
f 67/67/67 68/68/68 67/67/67 
f 67/67/67 68/68/68 69/69/69 
f 68/68/68 70/70/70 69/69/69 
f 69/69/69 70/70/70 70/70/70 
f 70/70/70 71/71/71 70/70/70 
f 70/70/70 71/71/71 71/71/71 
f 71/71/71 72/72/72 71/71/71 
f 71/71/71 72/72/72 73/73/73 
f 72/72/72 74/74/74 73/73/73 
f 73/73/73 74/74/74 75/75/75 
f 74/74/74 76/76/76 75/75/75 
f 75/75/75 76/76/76 77/77/77 
f 76/76/76 78/78/78 77/77/77 
f 77/77/77 78/78/78 79/79/79 
f 78/78/78 80/80/80 79/79/79 
f 79/79/79 80/80/80 81/81/81 
f 80/80/80 82/82/82 81/81/81 
f 81/81/81 82/82/82 83/83/83 
f 82/82/82 84/84/84 83/83/83 
f 83/83/83 84/84/84 85/85/85 
f 84/84/84 86/86/86 85/85/85 
f 85/85/85 86/86/86 87/87/87 
f 86/86/86 88/88/88 87/87/87 
f 87/87/87 88/88/88 88/88/88 
f 88/88/88 89/89/89 88/88/88 
f 88/88/88 89/89/89 89/89/89 
f 89/89/89 90/90/90 89/89/89 
f 89/89/89 90/90/90 91/91/91 
f 90/90/90 92/92/92 91/91/91 
f 91/91/91 92/92/92 92/92/92 
f 92/92/92 93/93/93 92/92/92 
f 92/92/92 93/93/93 93/93/93 
f 93/93/93 94/94/94 93/93/93 
f 93/93/93 94/94/94 95/95/95 
f 94/94/94 96/96/96 95/95/95 
f 95/95/95 96/96/96 96/96/96 
f 96/96/96 97/97/97 96/96/96 
f 96/96/96 97/97/97 97/97/97 
f 97/97/97 98/98/98 97/97/97 
f 97/97/97 98/98/98 99/99/99 
f 98/98/98 100/100/100 99/99/99 

