# Blender 4.3.0
# www.blender.org
mtllib Finnsword06OBJ.mtl
o 4DSwordEdge
v 0.331111 0.104883 -0.570050
v 0.000001 0.190977 -0.783412
v 0.329796 -0.022191 -0.255129
v -0.331801 -0.015217 -0.272412
v -0.329812 0.100370 -0.558866
v 0.000001 -0.097865 -0.067589
v 0.331111 4.953337 1.386350
v 0.000001 5.039430 1.172988
v 0.329796 4.826262 1.701271
v -0.331801 4.833237 1.683987
v -0.329812 4.948824 1.397534
v 0.000001 4.750588 1.888811
v -0.000118 5.530905 1.796317
v -0.000118 5.530905 1.796317
v -0.000118 5.530905 1.796317
v -0.000118 5.530905 1.796317
v -0.000118 5.530905 1.796317
v -0.000118 5.530905 1.796317
v 0.321025 0.102919 -0.565183
v 0.331111 0.104883 -0.570050
v 0.000149 0.186722 -0.772869
v 0.000001 0.190977 -0.783412
v 0.319886 -0.020106 -0.260297
v 0.329796 -0.022191 -0.255129
v -0.321762 -0.013220 -0.277361
v -0.331801 -0.015217 -0.272412
v -0.319685 0.098436 -0.554072
v -0.329812 0.100370 -0.558866
v 0.000213 -0.093611 -0.078131
v 0.000001 -0.097865 -0.067589
v 0.321905 4.940278 1.386232
v 0.331111 4.953337 1.386350
v 0.000127 5.024264 1.178048
v 0.000001 5.039430 1.172988
v 0.320750 4.816890 1.692021
v 0.329796 4.826262 1.701271
v -0.322620 4.823842 1.674969
v -0.331801 4.833237 1.683987
v -0.320556 4.935843 1.397362
v -0.329812 4.948824 1.397534
v 0.000182 4.743277 1.874664
v 0.000001 4.750588 1.888811
v -0.005973 5.507380 1.790136
v -0.000118 5.530905 1.796317
v -0.000010 5.505690 1.792967
v -0.000118 5.530905 1.796317
v -0.005825 5.509662 1.784248
v -0.000118 5.530905 1.796317
v 0.005728 5.509781 1.784376
v -0.000118 5.530905 1.796317
v 0.005826 5.507521 1.790201
v -0.000118 5.530905 1.796317
v 0.000033 5.510805 1.781181
v -0.000118 5.530905 1.796317
v 0.004953 -0.080874 -0.070067
v 0.000107 -0.109490 -0.078409
v 0.324841 -0.034900 -0.263262
v 0.318970 -0.008743 -0.248825
v 0.004938 4.604235 1.820953
v 0.321399 0.118867 -0.565075
v 0.326068 0.090149 -0.573165
v 0.000075 0.175097 -0.783690
v 0.005776 0.201119 -0.768918
v 0.321840 4.809930 1.327562
v -0.324785 0.111028 -0.545648
v -0.324748 0.085651 -0.562018
v -0.326782 -0.027971 -0.280436
v -0.326739 0.002014 -0.275484
v -0.325220 4.760695 1.330285
v 0.324867 -0.004878 -0.258404
v 0.326046 0.115526 -0.556795
v 0.326486 4.781195 1.325595
v -0.321015 -0.001903 -0.265778
v -0.004626 -0.080807 -0.070232
v -0.004641 4.608456 1.822464
v -0.004508 0.323711 -0.720094
v -0.319571 4.930123 1.388078
v -0.004519 5.016837 1.173089
v 0.005453 4.758812 1.877425
v 0.315446 4.829971 1.700971
v -0.002971 5.520284 1.790282
v -0.002971 5.520284 1.790282
v -0.000042 5.520854 1.788749
v -0.000042 5.520854 1.788749
v 0.316925 4.955986 1.388598
v 0.005363 5.037156 1.187415
v -0.000064 5.518298 1.794642
v -0.000064 5.518298 1.794642
v -0.003045 5.519143 1.793226
v -0.003045 5.519143 1.793226
v -0.317409 4.836900 1.684250
v -0.005222 4.759059 1.877178
v -0.000042 5.520854 1.788749
v 0.002805 5.520343 1.790347
v 0.002805 5.520343 1.790347
v -0.320794 4.947895 1.408398
v -0.322716 4.840183 1.675356
v 0.002805 5.520343 1.790347
v 0.002854 5.519213 1.793259
v 0.002854 5.519213 1.793259
v 0.320864 4.833344 1.692222
v 0.322034 4.952282 1.397459
v -0.003045 5.519143 1.793226
v -0.002971 5.520284 1.790282
v -0.005201 5.037165 1.187679
v -0.315666 4.951712 1.399545
v 0.002854 5.519213 1.793259
v -0.000064 5.518298 1.794642
v -0.320601 4.807471 1.339402
v -0.005538 0.201060 -0.768770
v -0.320166 0.114414 -0.554040
v 0.320807 4.934537 1.377068
v 0.004743 0.325726 -0.719411
v 0.004732 5.016882 1.172977
v -0.325226 4.926101 1.398046
v -0.326745 0.167420 -0.207724
v -0.327174 4.816915 1.668657
v -0.005675 4.734617 1.872629
v -0.322479 4.813608 1.676850
v -0.322049 0.124258 -0.215613
v 0.005963 4.734528 1.872850
v 0.319995 0.121549 -0.196928
v 0.320427 4.806712 1.693853
v 0.326482 4.930537 1.386982
v 0.325295 4.809951 1.685825
v 0.324863 0.144464 -0.197017
vn 0.5227 -0.3190 0.7906
vn 0.5706 0.3073 -0.7615
vn -1.0000 0.0024 -0.0060
vn 1.0000 -0.0014 0.0036
vn -0.5541 -0.3115 0.7720
vn -0.5918 0.3016 -0.7475
vn 0.4736 0.1037 0.8746
vn 0.5165 0.6725 -0.5301
vn -0.5041 0.1016 0.8576
vn -0.9015 0.4034 0.1565
vn 0.9016 0.3999 0.1651
vn -0.5374 0.6622 -0.5222
vn -0.4972 0.5926 -0.6337
vn 0.4968 -0.0132 0.8678
vn -0.4971 0.0131 -0.8676
vn 0.4968 -0.5927 0.6339
vn -0.9503 0.0717 -0.3031
vn -0.1136 -0.4134 0.9034
vn 0.4624 0.3319 -0.8222
vn 0.8620 -0.1897 0.4702
vn -0.5438 -0.0047 0.8392
vn 0.5430 0.5792 -0.6080
vn -0.5438 -0.5790 0.6075
vn 0.5430 0.0049 -0.8397
vn 0.1345 -0.4176 0.8986
vn 0.9409 0.0843 -0.3279
vn -0.9996 0.0107 -0.0261
vn 0.0777 0.3730 -0.9246
vn 0.9468 0.2961 0.1264
vn -0.9468 0.3008 0.1147
vn 0.9468 -0.3009 -0.1144
vn -0.9468 -0.2961 -0.1262
vn 0.7405 0.2150 -0.6367
vn -0.7791 0.2004 -0.5940
vn 0.5487 -0.3127 0.7753
vn -0.8614 -0.1901 0.4710
vn -0.9476 0.2975 0.1164
vn 0.9476 0.2949 0.1228
vn -0.9476 -0.2950 -0.1227
vn 0.9476 -0.2976 -0.1162
vn -0.5506 -0.3122 0.7742
vn 0.8608 -0.1904 0.4719
vn -0.7375 0.2127 -0.6410
vn 0.7893 0.1924 -0.5830
vn 0.5268 0.5863 -0.6153
vn -0.5264 -0.0050 0.8502
vn 0.5268 0.0049 -0.8500
vn -0.5264 -0.5865 0.6156
vn -0.4294 0.3381 -0.8374
vn -0.8800 -0.1778 0.4405
vn 0.9604 0.0579 -0.2726
vn 0.0800 -0.4161 0.9058
vn 0.9506 -0.0733 0.3016
vn 0.1081 0.4201 -0.9010
vn 0.5294 -0.6869 0.4979
vn -0.5794 0.1029 -0.8085
vn -0.4049 -0.3420 0.8480
vn -0.8898 0.1707 -0.4232
vn -0.5233 0.3223 -0.7889
vn 0.1850 0.7546 0.6296
vn -0.7371 -0.4139 0.5342
vn -0.2492 -0.2398 0.9383
vn -0.4725 0.5279 -0.7058
vn 0.4725 -0.5279 0.7058
vn 0.4726 -0.5279 0.7057
vn 0.9292 -0.0403 -0.3674
vn 0.9603 0.0360 0.2766
vn -0.5718 -0.3070 0.7608
vn 0.2000 0.9762 0.0839
vn 0.9287 -0.2892 0.2320
vn 0.9638 0.2114 -0.1627
vn -0.4533 -0.1193 0.8834
vn -0.4532 -0.1193 0.8834
vn 0.4533 0.1193 -0.8834
vn 0.4532 0.1193 -0.8834
vn -0.7172 0.0838 -0.6918
vn -0.2155 0.4830 -0.8487
vn 0.5547 0.3181 -0.7688
vn -0.2044 0.7472 0.6324
vn -0.9201 -0.0433 -0.3892
vn -0.9660 0.0332 0.2563
vn 0.4858 0.5281 -0.6965
vn -0.4858 -0.5281 0.6965
vn 0.7162 -0.4262 0.5526
vn 0.2121 -0.2495 0.9449
vn 0.9999 0.0076 0.0104
vn -0.3340 0.8749 0.3507
vn -0.1182 0.2158 -0.9693
vn -0.6496 0.4150 -0.6370
vn 0.9710 0.2279 0.0722
vn -0.9710 -0.2279 -0.0722
vn -0.1048 -0.5180 0.8489
vn -0.6433 -0.1463 0.7516
vn -1.0000 0.0087 -0.0004
vn 0.3330 0.8740 0.3540
vn 0.1231 -0.5236 0.8430
vn 0.6536 -0.1478 0.7423
vn -0.9722 0.2254 0.0630
vn 0.9722 -0.2254 -0.0630
vn 0.1536 0.2057 -0.9665
vn 0.6732 0.4024 -0.6204
vn 0.5931 -0.2981 0.7479
vn -0.2143 0.9736 0.0785
vn 0.7073 0.0843 -0.7019
vn 0.1946 0.4800 -0.8554
vn 0.4548 -0.1154 0.8831
vn -0.4548 0.1154 -0.8831
vn -0.9224 -0.3016 0.2413
vn -0.9676 0.2000 -0.1541
vn -0.1144 -0.4196 0.9005
vn -0.9490 0.0749 -0.3062
vn 0.5638 0.0021 0.8259
vn -0.5629 0.5749 -0.5938
vn 0.5638 -0.5747 0.5932
vn -0.5629 -0.0019 -0.8265
vn 0.9989 0.0175 -0.0430
vn -0.0949 0.3725 -0.9232
vn -0.9427 -0.0827 0.3233
vn -0.1280 0.4182 -0.8993
vn 0.4282 -0.3380 0.8381
vn 0.8778 0.1792 -0.4442
vn -0.5107 -0.6911 0.5113
vn 0.5587 0.1095 -0.8221
vn 0.7752 -0.2024 0.5984
vn -0.7459 -0.2124 0.6313
vn 0.5515 0.3123 -0.7735
vn -0.8618 0.1898 -0.4704
vn 0.8855 -0.4332 -0.1683
vn -0.9765 -0.1975 -0.0866
vn 0.4945 -0.1426 -0.8574
vn -0.5421 -0.4986 0.6764
vn 0.9999 -0.0041 0.0105
vn -0.0630 -0.3735 0.9255
vn -0.0849 0.4157 -0.9055
vn -0.9586 -0.0599 0.2785
vn 0.1186 0.4130 -0.9030
vn 0.9481 -0.0738 0.3092
vn -0.9998 0.0078 -0.0191
vn 0.0322 -0.3740 0.9269
vn -0.4667 -0.1354 -0.8740
vn 0.5114 -0.5053 0.6951
vn -0.8867 -0.4275 -0.1759
vn 0.9770 -0.1991 -0.0764
vn -0.5377 0.3156 -0.7818
vn 0.8705 0.1842 -0.4565
vn -0.7859 -0.1943 0.5871
vn 0.7424 -0.2104 0.6361
vt 0.542566 1.000000
vt 0.620299 1.000000
vt 0.703853 1.000000
vt 0.717934 1.000000
vt 0.482439 1.000000
vt 0.484467 1.000000
s 0
usemtl Material.010
f 6/1/1 3/2/1 12/1/1
f 1/3/2 2/4/2 7/3/2
f 5/5/3 4/6/3 11/5/3
f 3/2/4 1/3/4 7/3/4
f 4/6/5 6/1/5 12/1/5
f 2/4/6 11/5/6 8/4/6
f 12/1/7 9/2/7 15/2/7 18/1/7
f 7/3/8 8/4/8 14/4/8 13/3/8
f 10/6/9 12/1/9 18/1/9 16/6/9
f 11/5/10 10/6/10 16/6/10 17/5/10
f 9/2/11 7/3/11 13/3/11 15/2/11
f 8/4/12 11/5/12 17/5/12 14/4/12
f 11/5/6 2/4/6 5/5/6
f 7/3/2 2/4/2 8/4/2
f 11/5/3 4/6/3 10/6/3
f 12/1/5 10/6/5 4/6/5
f 12/1/1 3/2/1 9/2/1
f 7/3/4 9/2/4 3/2/4
usemtl Material.009
f 55/1/13 58/2/13 23/2/13 29/1/13
f 58/2/14 55/1/14 30/1/14 24/2/14
f 57/2/15 56/1/15 29/1/15 23/2/15
f 56/1/16 57/2/16 24/2/16 30/1/16
f 58/2/17 59/1/17 41/1/17 23/2/17
f 59/1/18 58/2/18 24/2/18 42/1/18
f 59/1/19 55/1/19 29/1/19 41/1/19
f 55/1/20 59/1/20 42/1/20 30/1/20
f 60/3/21 63/4/21 21/4/21 19/3/21
f 63/4/22 60/3/22 20/3/22 22/4/22
f 62/4/23 61/3/23 19/3/23 21/4/23
f 61/3/24 62/4/24 22/4/24 20/3/24
f 63/4/25 64/3/25 31/3/25 21/4/25
f 64/3/26 63/4/26 22/4/26 32/3/26
f 64/3/27 60/3/27 19/3/27 31/3/27
f 60/3/28 64/3/28 32/3/28 20/3/28
f 65/5/29 68/6/29 25/6/29 27/5/29
f 68/6/30 65/5/30 28/5/30 26/6/30
f 67/6/31 66/5/31 27/5/31 25/6/31
f 66/5/32 67/6/32 26/6/32 28/5/32
f 68/6/33 69/5/33 39/5/33 25/6/33
f 69/5/34 68/6/34 26/6/34 40/5/34
f 69/5/35 65/5/35 27/5/35 39/5/35
f 65/5/36 69/5/36 40/5/36 28/5/36
f 70/2/37 71/3/37 19/3/37 23/2/37
f 71/3/38 70/2/38 24/2/38 20/3/38
f 61/3/39 57/2/39 23/2/39 19/3/39
f 57/2/40 61/3/40 20/3/40 24/2/40
f 71/3/41 72/3/41 31/3/41 19/3/41
f 72/3/42 71/3/42 20/3/42 32/3/42
f 72/3/43 70/2/43 23/2/43 31/3/43
f 70/2/44 72/3/44 32/3/44 24/2/44
f 73/6/45 74/1/45 29/1/45 25/6/45
f 74/1/46 73/6/46 26/6/46 30/1/46
f 56/1/47 67/6/47 25/6/47 29/1/47
f 67/6/48 56/1/48 30/1/48 26/6/48
f 74/1/49 75/1/49 41/1/49 29/1/49
f 75/1/50 74/1/50 30/1/50 42/1/50
f 75/1/51 73/6/51 25/6/51 41/1/51
f 73/6/52 75/1/52 42/1/52 26/6/52
f 76/4/53 77/5/53 39/5/53 21/4/53
f 77/5/54 76/4/54 22/4/54 40/5/54
f 77/5/55 78/4/55 33/4/55 39/5/55
f 78/4/56 77/5/56 40/5/56 34/4/56
f 78/4/57 76/4/57 21/4/57 33/4/57
f 76/4/58 78/4/58 34/4/58 22/4/58
f 79/1/59 80/2/59 35/2/59 41/1/59
f 80/2/60 79/1/60 42/1/60 36/2/60
f 80/2/61 81/2/61 47/2/61 35/2/61
f 81/2/62 80/2/62 36/2/62 48/2/62
f 81/2/63 84/1/63 53/1/63 47/2/63
f 84/1/63 81/2/63 48/2/63 54/1/63
f 83/1/64 82/2/64 47/2/64 53/1/64
f 82/2/65 83/1/65 54/1/65 48/2/65
f 84/1/66 79/1/66 41/1/66 53/1/66
f 79/1/67 84/1/67 54/1/67 42/1/67
f 85/3/68 86/4/68 33/4/68 31/3/68
f 86/4/69 85/3/69 32/3/69 34/4/69
f 86/4/70 87/4/70 45/4/70 33/4/70
f 87/4/71 86/4/71 34/4/71 46/4/71
f 87/4/72 90/3/72 43/3/72 45/4/72
f 90/3/73 87/4/73 46/4/73 44/3/73
f 89/3/74 88/4/74 45/4/74 43/3/74
f 88/4/75 89/3/75 44/3/75 46/4/75
f 90/3/76 85/3/76 31/3/76 43/3/76
f 85/3/77 90/3/77 44/3/77 32/3/77
f 91/6/78 92/1/78 41/1/78 37/6/78
f 92/1/79 91/6/79 38/6/79 42/1/79
f 92/1/80 93/1/80 53/1/80 41/1/80
f 93/1/81 92/1/81 42/1/81 54/1/81
f 93/1/82 95/6/82 49/6/82 53/1/82
f 95/6/82 93/1/82 54/1/82 50/6/82
f 94/6/83 83/1/83 53/1/83 49/6/83
f 83/1/83 94/6/83 50/6/83 54/1/83
f 95/6/84 91/6/84 37/6/84 49/6/84
f 91/6/85 95/6/85 50/6/85 38/6/85
f 96/5/86 97/6/86 37/6/86 39/5/86
f 97/6/87 96/5/87 40/5/87 38/6/87
f 97/6/88 98/6/88 49/6/88 37/6/88
f 98/6/89 97/6/89 38/6/89 50/6/89
f 98/6/90 100/5/90 51/5/90 49/6/90
f 100/5/90 98/6/90 50/6/90 52/5/90
f 99/5/91 94/6/91 49/6/91 51/5/91
f 94/6/91 99/5/91 52/5/91 50/6/91
f 100/5/92 96/5/92 39/5/92 51/5/92
f 96/5/93 100/5/93 52/5/93 40/5/93
f 101/2/94 102/3/94 31/3/94 35/2/94
f 102/3/95 101/2/95 36/2/95 32/3/95
f 102/3/96 103/3/96 43/3/96 31/3/96
f 103/3/97 102/3/97 32/3/97 44/3/97
f 103/3/98 104/2/98 47/2/98 43/3/98
f 104/2/98 103/3/98 44/3/98 48/2/98
f 82/2/99 89/3/99 43/3/99 47/2/99
f 89/3/99 82/2/99 48/2/99 44/3/99
f 104/2/100 101/2/100 35/2/100 47/2/100
f 101/2/101 104/2/101 48/2/101 36/2/101
f 105/4/102 106/5/102 39/5/102 33/4/102
f 106/5/103 105/4/103 34/4/103 40/5/103
f 106/5/104 107/5/104 51/5/104 39/5/104
f 107/5/105 106/5/105 40/5/105 52/5/105
f 107/5/106 108/4/106 45/4/106 51/5/106
f 108/4/106 107/5/106 52/5/106 46/4/106
f 88/4/107 99/5/107 51/5/107 45/4/107
f 99/5/107 88/4/107 46/4/107 52/5/107
f 108/4/108 105/4/108 33/4/108 45/4/108
f 105/4/109 108/4/109 46/4/109 34/4/109
f 109/5/110 110/4/110 21/4/110 39/5/110
f 110/4/111 109/5/111 40/5/111 22/4/111
f 110/4/112 111/5/112 27/5/112 21/4/112
f 111/5/113 110/4/113 22/4/113 28/5/113
f 66/5/114 62/4/114 21/4/114 27/5/114
f 62/4/115 66/5/115 28/5/115 22/4/115
f 111/5/116 109/5/116 39/5/116 27/5/116
f 109/5/117 111/5/117 28/5/117 40/5/117
f 112/3/118 113/4/118 21/4/118 31/3/118
f 113/4/119 112/3/119 32/3/119 22/4/119
f 113/4/120 114/4/120 33/4/120 21/4/120
f 114/4/121 113/4/121 22/4/121 34/4/121
f 114/4/122 112/3/122 31/3/122 33/4/122
f 112/3/123 114/4/123 34/4/123 32/3/123
f 115/5/124 116/6/124 25/6/124 39/5/124
f 116/6/125 115/5/125 40/5/125 26/6/125
f 116/6/126 117/6/126 37/6/126 25/6/126
f 117/6/127 116/6/127 26/6/127 38/6/127
f 117/6/128 115/5/128 39/5/128 37/6/128
f 115/5/129 117/6/129 38/6/129 40/5/129
f 118/1/130 119/6/130 37/6/130 41/1/130
f 119/6/131 118/1/131 42/1/131 38/6/131
f 119/6/132 120/6/132 25/6/132 37/6/132
f 120/6/133 119/6/133 38/6/133 26/6/133
f 120/6/134 118/1/134 41/1/134 25/6/134
f 118/1/135 120/6/135 26/6/135 42/1/135
f 121/1/136 122/2/136 23/2/136 41/1/136
f 122/2/137 121/1/137 42/1/137 24/2/137
f 122/2/138 123/2/138 35/2/138 23/2/138
f 123/2/139 122/2/139 24/2/139 36/2/139
f 123/2/140 121/1/140 41/1/140 35/2/140
f 121/1/141 123/2/141 36/2/141 42/1/141
f 124/3/142 125/2/142 35/2/142 31/3/142
f 125/2/143 124/3/143 32/3/143 36/2/143
f 125/2/144 126/2/144 23/2/144 35/2/144
f 126/2/145 125/2/145 36/2/145 24/2/145
f 126/2/146 124/3/146 31/3/146 23/2/146
f 124/3/147 126/2/147 24/2/147 32/3/147
o 4DSwordHandle
v -0.000000 -1.268042 -1.186499
v 0.000000 -0.167872 -0.742570
v 0.216266 -1.326838 -1.040788
v 0.216266 -0.226668 -0.596859
v 0.133660 -1.421972 -0.805023
v 0.133660 -0.321802 -0.361093
v -0.133660 -1.421972 -0.805023
v -0.133660 -0.321802 -0.361093
v -0.216266 -1.326838 -1.040788
v -0.216266 -0.226668 -0.596859
v 0.000000 -1.499793 -1.440437
v 0.357753 -1.597055 -1.199397
v 0.221104 -1.754428 -0.809387
v -0.221103 -1.754428 -0.809387
v -0.357753 -1.597055 -1.199397
v -0.000000 -2.096216 -1.275466
v -0.000000 -2.096216 -1.275466
v -0.000000 -2.096216 -1.275466
v -0.000000 -2.096216 -1.275466
v -0.000000 -2.096216 -1.275466
v 0.930607 -0.139816 -0.812099
v 0.000001 0.113186 -1.439104
v 0.575147 -0.549183 0.202415
v -0.575145 -0.549183 0.202415
v -0.930605 -0.139816 -0.812099
v 0.930607 0.154613 -0.693294
v 0.000001 0.407616 -1.320299
v 0.575147 -0.254754 0.321220
v -0.575145 -0.254754 0.321220
v -0.930605 0.154613 -0.693294
v 0.000000 -1.285819 -1.183153
v -0.000000 -1.268042 -1.186499
v 0.000000 -0.172127 -0.732026
v 0.000000 -0.167872 -0.742570
v 0.206988 -1.342093 -1.043693
v 0.216266 -1.326838 -1.040788
v 0.205453 -0.227983 -0.593600
v 0.216266 -0.226668 -0.596859
v 0.127925 -1.433145 -0.818042
v 0.133660 -1.421972 -0.805023
v 0.126977 -0.318360 -0.369623
v 0.133660 -0.321802 -0.361093
v -0.127925 -1.433145 -0.818042
v -0.133660 -1.421972 -0.805023
v -0.126977 -0.318360 -0.369623
v -0.133660 -0.321802 -0.361093
v -0.206988 -1.342093 -1.043693
v -0.216266 -1.326838 -1.040788
v -0.205453 -0.227983 -0.593600
v -0.216266 -0.226668 -0.596859
v 0.000000 -1.501776 -1.429018
v 0.000000 -1.499793 -1.440437
v 0.346977 -1.596108 -1.195239
v 0.357753 -1.597055 -1.199397
v 0.214443 -1.748740 -0.816977
v 0.221104 -1.754428 -0.809387
v -0.214443 -1.748740 -0.816977
v -0.221103 -1.754428 -0.809387
v -0.346976 -1.596108 -1.195239
v -0.357753 -1.597055 -1.199397
v 0.000000 -2.073528 -1.260822
v -0.000000 -2.096216 -1.275466
v -0.004842 -2.072212 -1.264084
v -0.000000 -2.096216 -1.275466
v -0.003927 -2.082272 -1.280393
v -0.000000 -2.096216 -1.275466
v 0.003927 -2.082272 -1.280393
v -0.000000 -2.096216 -1.275466
v 0.004842 -2.072212 -1.264084
v -0.000000 -2.096216 -1.275466
v 0.921921 -0.124488 -0.802871
v 0.930607 -0.139816 -0.812099
v 0.000001 0.126154 -1.424024
v 0.000001 0.113186 -1.439104
v 0.569779 -0.530034 0.202175
v 0.575147 -0.549183 0.202415
v -0.569778 -0.530034 0.202175
v -0.575145 -0.549183 0.202415
v -0.921920 -0.124488 -0.802871
v -0.930605 -0.139816 -0.812099
v 0.921921 0.137173 -0.697288
v 0.930607 0.154613 -0.693294
v 0.000001 0.387814 -1.318441
v 0.000001 0.407616 -1.320299
v 0.569779 -0.268373 0.307758
v 0.575147 -0.254754 0.321220
v -0.569778 -0.268373 0.307758
v -0.575145 -0.254754 0.321220
v -0.921920 0.137173 -0.697288
v -0.930605 0.154613 -0.693294
v 0.004599 -1.264429 -1.176178
v 0.004599 -0.185002 -0.739748
v 0.000000 -0.156247 -0.731749
v 0.210859 -0.213573 -0.589680
v 0.206260 -0.239827 -0.603877
v 0.207028 -1.319463 -1.039790
v 0.209870 -1.322737 -1.031678
v 0.209102 -0.243101 -0.595765
v 0.130318 -0.306329 -0.359809
v 0.132075 -0.331810 -0.375921
v 0.132549 -1.411783 -0.810997
v 0.125108 -1.413806 -0.805983
v 0.124633 -0.333833 -0.370907
v -0.130318 -0.306329 -0.359809
v -0.124633 -0.333833 -0.370907
v -0.125108 -1.413806 -0.805983
v -0.132549 -1.411783 -0.810997
v -0.132075 -0.331810 -0.375921
v -0.210859 -0.213573 -0.589680
v -0.209102 -0.243101 -0.595765
v -0.209870 -1.322737 -1.031678
v -0.207028 -1.319463 -1.039790
v -0.206260 -0.239827 -0.603877
v -0.004599 -0.185002 -0.739748
v -0.004599 -1.264429 -1.176178
v 0.005178 -1.286129 -1.189873
v 0.211205 -1.342141 -1.051060
v 0.342431 -1.586091 -1.195475
v 0.005178 -1.494402 -1.422703
v -0.216326 -1.754635 -0.826479
v -0.344617 -1.606888 -1.192633
v 0.007451 -2.093446 -1.265359
v 0.006291 -2.092852 -1.294687
v 0.127332 -1.438734 -0.811679
v -0.127332 -1.438734 -0.811679
v -0.208434 -1.740409 -0.813035
v 0.208434 -1.740409 -0.813035
v -0.135710 -1.436456 -0.817324
v -0.214405 -1.345826 -1.041928
v -0.345631 -1.589776 -1.186342
v -0.216812 -1.738132 -0.818680
v 0.214405 -1.345826 -1.041928
v 0.135710 -1.436456 -0.817324
v 0.216812 -1.738132 -0.818680
v 0.345631 -1.589776 -1.186342
v -0.211205 -1.342141 -1.051060
v -0.005178 -1.286129 -1.189873
v -0.005177 -1.494402 -1.422703
v -0.342431 -1.586091 -1.195475
v 0.000000 -2.084872 -1.268144
v -0.002421 -2.084214 -1.269775
v -0.001964 -2.089244 -1.277929
v 0.001964 -2.089244 -1.277929
v 0.002421 -2.084214 -1.269775
v 0.344618 -1.606888 -1.192633
v 0.216326 -1.754635 -0.826479
v -0.006291 -2.092852 -1.294687
v -0.007451 -2.093446 -1.265359
v -0.341276 -1.603040 -1.202169
v -0.005406 -1.511728 -1.428464
v 0.000000 -2.071623 -1.261348
v -0.002609 -2.074982 -1.274191
v 0.207579 -1.757013 -0.820585
v -0.207579 -1.757013 -0.820585
v 0.001964 -2.089244 -1.277929
v -0.001964 -2.089244 -1.277929
v 0.005406 -1.511728 -1.428464
v 0.341276 -1.603040 -1.202169
v 0.002609 -2.074982 -1.274191
v 0.000000 -2.071623 -1.261348
v -0.924506 -0.120423 -0.796922
v -0.574218 -0.523833 0.202830
v -0.574218 -0.273292 0.303926
v -0.924506 0.130118 -0.695827
v 0.919581 -0.132965 -0.805472
v 0.568333 -0.537481 0.197023
v -0.568331 -0.537481 0.197023
v -0.919580 -0.132965 -0.805472
v 0.000001 0.117041 -1.425047
v 0.574220 -0.523833 0.202830
v 0.924507 -0.120423 -0.796922
v 0.924507 0.130118 -0.695827
v 0.574220 -0.273292 0.303926
v -0.004598 0.132172 -1.422916
v -0.921663 -0.117150 -0.805035
v -0.921663 0.133391 -0.703939
v -0.004598 0.382713 -1.321820
v -0.566777 -0.525856 0.207844
v 0.566778 -0.525856 0.207844
v 0.566778 -0.275316 0.308940
v -0.566777 -0.275316 0.308940
v 0.921665 -0.117150 -0.805035
v 0.004600 0.132172 -1.422916
v 0.004600 0.382713 -1.321820
v 0.921665 0.133391 -0.703939
v 0.919581 0.145081 -0.693278
v 0.000001 0.395086 -1.312853
v -0.919580 0.145081 -0.693278
v -0.568331 -0.259436 0.309217
v 0.568333 -0.259436 0.309217
vn 0.5878 0.3027 -0.7502
vn 0.9511 -0.1156 0.2866
vn -0.0000 -0.3742 0.9273
vn -0.9511 -0.1156 0.2866
vn -0.5878 0.3027 -0.7502
vn 0.5479 0.6179 -0.5639
vn -0.8085 -0.5866 0.0466
vn -0.0000 -0.0131 0.9999
vn -0.8866 0.2279 0.4026
vn 0.8866 0.2279 0.4026
vn -0.5479 0.6179 -0.5639
vn -0.0000 0.9273 0.3742
vn 0.8085 -0.5866 0.0466
vn -0.4997 -0.2309 -0.8348
vn -0.0000 -0.8064 0.5914
vn 0.4997 -0.2309 -0.8348
vn -0.0000 -0.9274 -0.3742
vn 0.3893 -0.3456 0.8538
vn 0.8824 0.1762 -0.4363
vn -0.5614 -0.5638 0.6057
vn 0.5614 0.0144 -0.8274
vn -0.5614 -0.0144 0.8274
vn 0.5614 0.5638 -0.6057
vn -0.9963 0.0312 -0.0797
vn 0.1749 0.3686 -0.9130
vn -0.5789 -0.1376 0.8037
vn 0.5157 0.7107 -0.4786
vn -0.7557 -0.2459 0.6069
vn 0.7202 -0.2595 0.6434
vn -0.9084 -0.1643 -0.3845
vn 0.9084 -0.3851 0.1629
vn -0.9084 0.3851 -0.1629
vn 0.9084 0.1643 0.3845
vn -0.2265 0.3636 -0.9036
vn 0.9904 0.0518 -0.1279
vn -0.9367 0.2745 -0.2174
vn 0.8344 0.3437 0.4310
vn -0.8564 0.1924 -0.4792
vn -0.4373 -0.3364 0.8341
vn -0.0000 0.0827 -0.9966
vn -0.0000 -0.6321 0.7749
vn -0.0000 0.6321 -0.7749
vn -0.0000 -0.0827 0.9966
vn 0.8564 0.1924 -0.4792
vn 0.4373 -0.3364 0.8341
vn -0.0000 0.5291 -0.8486
vn -0.0000 0.1168 0.9932
vn 0.2265 0.3636 -0.9036
vn -0.9904 0.0518 -0.1279
vn 0.9084 -0.1643 -0.3845
vn -0.9084 -0.3851 0.1629
vn 0.9084 0.3851 -0.1629
vn -0.9084 0.1643 0.3845
vn 0.7557 -0.2459 0.6069
vn -0.7202 -0.2595 0.6434
vn 0.9367 0.2745 -0.2174
vn -0.8344 0.3437 0.4310
vn 0.9963 0.0312 -0.0797
vn -0.1749 0.3686 -0.9130
vn 0.5614 -0.5638 0.6057
vn -0.5614 0.0144 -0.8274
vn 0.5614 -0.0144 0.8274
vn -0.5614 0.5638 -0.6057
vn -0.3893 -0.3456 0.8538
vn -0.8824 0.1762 -0.4363
vn 0.5789 -0.1376 0.8037
vn -0.5157 0.7107 -0.4786
vn -0.1945 -0.9753 -0.1049
vn 0.5878 0.3078 -0.7482
vn -0.8962 -0.2872 -0.3380
vn 0.1371 0.5559 -0.8199
vn -0.5868 -0.2481 0.7708
vn 0.4721 0.7956 -0.3797
vn 0.4728 -0.6595 0.5844
vn 0.8786 0.3543 -0.3203
vn 0.9507 0.1413 -0.2761
vn -0.5452 -0.8262 -0.1424
vn 0.3100 0.0875 0.9467
vn -0.6363 -0.5412 0.5498
vn 0.9773 0.1942 -0.0847
vn 0.3885 -0.9208 -0.0340
vn 0.0520 0.8215 -0.5678
vn -0.9334 -0.1949 -0.3014
vn -0.0000 -0.7513 -0.6599
vn -0.0000 -0.3691 0.9294
vn 0.8461 -0.2295 -0.4810
vn 0.4582 -0.1297 0.8793
vn -0.0000 0.4277 -0.9039
vn -0.0000 0.2519 0.9678
vn -0.8461 -0.2295 -0.4810
vn -0.4582 -0.1297 0.8793
vn 0.3146 -0.8369 -0.4479
vn -0.9510 -0.1105 0.2886
vn 0.6040 -0.6238 0.4960
vn -0.6801 -0.0694 0.7298
vn 0.9494 0.1696 -0.2642
vn -0.7639 0.4595 0.4531
vn 0.0811 -0.0215 -0.9965
vn -0.9633 0.2567 -0.0785
vn -0.3146 -0.8369 -0.4479
vn 0.9510 -0.1105 0.2886
vn -0.0811 -0.0215 -0.9965
vn 0.9633 0.2567 -0.0785
vn -0.9494 0.1696 -0.2642
vn 0.7639 0.4595 0.4531
vn -0.6040 -0.6238 0.4960
vn 0.6801 -0.0694 0.7298
vn 0.1945 -0.9753 -0.1049
vn -0.5878 0.3078 -0.7482
vn -0.4728 -0.6595 0.5844
vn -0.8786 0.3543 -0.3203
vn 0.5868 -0.2481 0.7708
vn -0.4721 0.7956 -0.3797
vn 0.8962 -0.2873 -0.3380
vn -0.1371 0.5559 -0.8199
vn 0.5808 0.4415 -0.6839
vn 0.9665 0.2392 -0.0934
vn -0.0000 0.3331 0.9429
vn -0.9665 0.2392 -0.0934
vn -0.5808 0.4415 -0.6839
vn -0.9507 0.1413 -0.2761
vn 0.5452 -0.8262 -0.1424
vn -0.0520 0.8215 -0.5678
vn 0.9334 -0.1949 -0.3014
vn -0.9773 0.1942 -0.0847
vn -0.3885 -0.9208 -0.0340
vn -0.3100 0.0875 0.9467
vn 0.6363 -0.5412 0.5498
vn 0.5876 -0.2769 0.7603
vn -0.3369 -0.5864 -0.7367
vn -0.3836 0.2607 0.8859
vn -0.9827 -0.0554 -0.1768
vn -0.0538 -0.9915 0.1183
vn 0.9640 0.1323 -0.2305
vn 0.7107 0.5774 -0.4019
vn -0.1522 0.0415 -0.9875
vn -0.0000 0.3998 -0.9166
vn -0.0000 -0.9744 0.2249
vn 0.9316 0.2823 0.2289
vn 0.6641 -0.4216 0.6174
vn -0.0000 -0.3331 -0.9429
vn -0.9316 0.2823 0.2289
vn -0.6641 -0.4216 0.6174
vn -0.5876 -0.2769 0.7603
vn 0.3369 -0.5864 -0.7367
vn -0.7107 0.5774 -0.4019
vn 0.1522 0.0415 -0.9875
vn 0.0538 -0.9915 0.1183
vn -0.9640 0.1323 -0.2305
vn 0.3837 0.2607 0.8859
vn 0.9827 -0.0554 -0.1768
vn 0.8097 0.5849 -0.0477
vn -0.9397 0.0288 0.3409
vn 0.3598 0.3491 -0.8652
vn -0.9949 0.0379 -0.0940
vn 0.8097 -0.3880 -0.4403
vn -0.9397 -0.2573 0.2254
vn 0.8395 -0.2033 0.5039
vn -0.7453 -0.2495 0.6183
vn -0.9278 0.3167 -0.1973
vn -0.6521 -0.5958 -0.4689
vn -0.0000 0.5689 -0.8224
vn -0.0000 -0.4185 -0.9082
vn 0.9278 0.3167 -0.1973
vn 0.6521 -0.5958 -0.4689
vn 0.5734 -0.0914 0.8142
vn 0.4030 -0.8826 0.2420
vn -0.5734 -0.0914 0.8142
vn -0.4030 -0.8826 0.2420
vn -0.8097 0.5849 -0.0477
vn 0.9397 0.0288 0.3409
vn -0.8395 -0.2033 0.5039
vn 0.7453 -0.2495 0.6183
vn -0.8097 -0.3880 -0.4403
vn 0.9397 -0.2573 0.2254
vn -0.3598 0.3491 -0.8652
vn 0.9948 0.0379 -0.0940
vn 0.5004 0.2287 0.8350
vn -0.5808 0.4421 -0.6835
vn 0.9985 -0.0202 0.0500
vn -0.2110 0.3658 -0.9065
vn 0.5004 -0.7442 0.4424
vn -0.5808 0.1561 -0.7990
vn -0.2573 -0.3616 0.8961
vn -0.8644 0.1881 -0.4662
vn -0.0000 0.8050 -0.5932
vn -0.0000 -0.2267 0.9740
vn -0.7762 0.2359 -0.5847
vn -0.4038 -0.3423 0.8484
vn -0.0000 -0.1679 -0.9858
vn -0.0000 -0.5128 0.8585
vn 0.7762 0.2359 -0.5847
vn 0.4038 -0.3423 0.8484
vn -0.5004 0.2287 0.8350
vn 0.5808 0.4421 -0.6835
vn 0.2573 -0.3616 0.8961
vn 0.8644 0.1881 -0.4662
vn -0.5004 -0.7442 0.4424
vn 0.5808 0.1561 -0.7990
vn -0.9985 -0.0202 0.0500
vn 0.2110 0.3658 -0.9065
vn -0.5734 -0.4992 0.6496
vn -0.4030 0.4675 0.7868
vn 0.5734 -0.4992 0.6496
vn 0.4030 0.4675 0.7868
vn 0.9278 -0.0911 -0.3618
vn 0.6521 0.7543 0.0759
vn -0.0000 0.1612 -0.9869
vn -0.0000 0.9316 -0.3634
vn -0.9278 -0.0911 -0.3618
vn -0.6521 0.7543 0.0759
vt 1.000000 0.500000
vt 1.000000 1.000000
vt 0.800000 1.000000
vt 0.800000 0.500000
vt 0.600000 1.000000
vt 0.600000 0.500000
vt 0.400000 1.000000
vt 0.400000 0.500000
vt 0.200000 1.000000
vt 0.200000 0.500000
vt 0.000000 1.000000
vt 0.000000 0.500000
vt 0.750000 0.490000
vt 0.978254 0.324164
vt 0.891068 0.055836
vt 0.608932 0.055836
vt 0.521746 0.324164
s 0
usemtl Material.010
f 127/7/148 128/8/148 130/9/148 129/10/148
f 129/10/149 130/9/149 132/11/149 131/12/149
f 131/12/150 132/11/150 134/13/150 133/14/150
f 133/14/151 134/13/151 136/15/151 135/16/151
f 135/16/152 136/15/152 128/17/152 127/18/152
f 127/7/153 129/10/153 138/10/153 137/7/153
f 140/14/154 141/16/154 146/16/154 145/14/154
f 131/12/155 133/14/155 140/14/155 139/12/155
f 133/14/156 135/16/156 141/16/156 140/14/156
f 129/10/157 131/12/157 139/12/157 138/10/157
f 135/16/158 127/18/158 137/18/158 141/16/158
f 142/19/159 143/20/159 144/21/159 145/22/159 146/23/159
f 138/10/160 139/12/160 144/12/160 143/10/160
f 141/16/161 137/18/161 142/18/161 146/16/161
f 139/12/162 140/14/162 145/14/162 144/12/162
f 137/7/163 138/10/163 143/10/163 142/7/163
f 151/15/151 150/13/151 155/13/151 156/15/151
f 147/9/164 149/11/164 150/13/164 151/15/164 148/17/164
f 149/11/149 147/9/149 152/9/149 154/11/149
f 148/17/152 151/15/152 156/15/152 153/17/152
f 150/13/150 149/11/150 154/11/150 155/13/150
f 147/9/148 148/8/148 153/8/148 152/9/148
f 152/9/159 153/17/159 156/15/159 155/13/159 154/11/159
usemtl Material.009
f 217/7/165 218/8/165 159/8/165 157/7/165
f 218/8/166 217/7/166 158/7/166 160/8/166
f 218/8/167 221/9/167 163/9/167 159/8/167
f 221/9/168 218/8/168 160/8/168 164/9/168
f 220/9/169 219/8/169 159/8/169 163/9/169
f 219/8/170 220/9/170 164/9/170 160/8/170
f 221/9/171 222/10/171 161/10/171 163/9/171
f 222/10/172 221/9/172 164/9/172 162/10/172
f 222/10/173 217/7/173 157/7/173 161/10/173
f 217/7/174 222/10/174 162/10/174 158/7/174
f 223/10/175 224/9/175 163/9/175 161/10/175
f 224/9/176 223/10/176 162/10/176 164/9/176
f 224/9/177 226/11/177 167/11/177 163/9/177
f 226/11/178 224/9/178 164/9/178 168/11/178
f 225/11/179 220/9/179 163/9/179 167/11/179
f 220/9/180 225/11/180 168/11/180 164/9/180
f 226/11/181 227/12/181 165/12/181 167/11/181
f 227/12/182 226/11/182 168/11/182 166/12/182
f 227/12/183 223/10/183 161/10/183 165/12/183
f 223/10/184 227/12/184 166/12/184 162/10/184
f 228/12/185 229/11/185 167/11/185 165/12/185
f 229/11/186 228/12/186 166/12/186 168/11/186
f 229/11/187 231/13/187 171/13/187 167/11/187
f 231/13/188 229/11/188 168/11/188 172/13/188
f 230/13/189 225/11/189 167/11/189 171/13/189
f 225/11/190 230/13/190 172/13/190 168/11/190
f 231/13/191 232/14/191 169/14/191 171/13/191
f 232/14/192 231/13/192 172/13/192 170/14/192
f 232/14/193 228/12/193 165/12/193 169/14/193
f 228/12/194 232/14/194 170/14/194 166/12/194
f 233/14/195 234/13/195 171/13/195 169/14/195
f 234/13/196 233/14/196 170/14/196 172/13/196
f 234/13/197 236/15/197 175/15/197 171/13/197
f 236/15/198 234/13/198 172/13/198 176/15/198
f 235/15/199 230/13/199 171/13/199 175/15/199
f 230/13/200 235/15/200 176/15/200 172/13/200
f 236/15/201 237/16/201 173/16/201 175/15/201
f 237/16/202 236/15/202 176/15/202 174/16/202
f 237/16/203 233/14/203 169/14/203 173/16/203
f 233/14/204 237/16/204 174/16/204 170/14/204
f 238/16/205 239/15/205 175/15/205 173/16/205
f 239/15/206 238/16/206 174/16/206 176/15/206
f 239/15/207 240/17/207 159/17/207 175/15/207
f 240/17/208 239/15/208 176/15/208 160/17/208
f 219/17/209 235/15/209 175/15/209 159/17/209
f 235/15/210 219/17/210 160/17/210 176/15/210
f 240/17/211 241/18/211 157/18/211 159/17/211
f 241/18/212 240/17/212 160/17/212 158/18/212
f 241/18/213 238/16/213 173/16/213 157/18/213
f 238/16/214 241/18/214 158/18/214 174/16/214
f 242/7/215 243/10/215 161/10/215 157/7/215
f 243/10/216 242/7/216 158/7/216 162/10/216
f 243/10/217 244/10/217 179/10/217 161/10/217
f 244/10/218 243/10/218 162/10/218 180/10/218
f 244/10/219 245/7/219 177/7/219 179/10/219
f 245/7/220 244/10/220 180/10/220 178/7/220
f 245/7/221 242/7/221 157/7/221 177/7/221
f 242/7/222 245/7/222 178/7/222 158/7/222
f 246/14/223 247/16/223 185/16/223 183/14/223
f 247/16/224 246/14/224 184/14/224 186/16/224
f 247/16/225 248/16/225 195/16/225 185/16/225
f 248/16/226 247/16/226 186/16/226 196/16/226
f 248/16/227 249/14/227 193/14/227 195/16/227
f 249/14/228 248/16/228 196/16/228 194/14/228
f 249/14/229 246/14/229 183/14/229 193/14/229
f 246/14/230 249/14/230 194/14/230 184/14/230
f 250/12/231 251/14/231 169/14/231 165/12/231
f 251/14/232 250/12/232 166/12/232 170/14/232
f 251/14/233 252/14/233 183/14/233 169/14/233
f 252/14/234 251/14/234 170/14/234 184/14/234
f 252/14/235 253/12/235 181/12/235 183/14/235
f 253/12/236 252/14/236 184/14/236 182/12/236
f 253/12/237 250/12/237 165/12/237 181/12/237
f 250/12/238 253/12/238 182/12/238 166/12/238
f 254/14/239 255/16/239 173/16/239 169/14/239
f 255/16/240 254/14/240 170/14/240 174/16/240
f 255/16/241 256/16/241 185/16/241 173/16/241
f 256/16/242 255/16/242 174/16/242 186/16/242
f 256/16/243 257/14/243 183/14/243 185/16/243
f 257/14/244 256/16/244 186/16/244 184/14/244
f 257/14/245 254/14/245 169/14/245 183/14/245
f 254/14/246 257/14/246 184/14/246 170/14/246
f 258/10/247 259/12/247 165/12/247 161/10/247
f 259/12/248 258/10/248 162/10/248 166/12/248
f 259/12/249 260/12/249 181/12/249 165/12/249
f 260/12/250 259/12/250 166/12/250 182/12/250
f 260/12/251 261/10/251 179/10/251 181/12/251
f 261/10/252 260/12/252 182/12/252 180/10/252
f 261/10/253 258/10/253 161/10/253 179/10/253
f 258/10/254 261/10/254 180/10/254 162/10/254
f 262/16/255 263/18/255 157/18/255 173/16/255
f 263/18/256 262/16/256 174/16/256 158/18/256
f 263/18/257 264/18/257 177/18/257 157/18/257
f 264/18/258 263/18/258 158/18/258 178/18/258
f 264/18/259 265/16/259 185/16/259 177/18/259
f 265/16/260 264/18/260 178/18/260 186/16/260
f 265/16/261 262/16/261 173/16/261 185/16/261
f 262/16/262 265/16/262 186/16/262 174/16/262
f 266/19/263 267/20/263 189/20/263 187/19/263
f 267/20/263 266/19/263 188/19/263 190/20/263
f 267/20/264 268/21/264 191/21/264 189/20/264
f 268/21/264 267/20/264 190/20/264 192/21/264
f 268/21/265 269/22/265 193/22/265 191/21/265
f 269/22/265 268/21/265 192/21/265 194/22/265
f 269/22/266 270/23/266 195/23/266 193/22/266
f 270/23/266 269/22/266 194/22/266 196/23/266
f 270/23/267 266/19/267 187/19/267 195/23/267
f 266/19/267 270/23/267 196/23/267 188/19/267
f 271/10/268 272/12/268 181/12/268 179/10/268
f 272/12/269 271/10/269 180/10/269 182/12/269
f 272/12/270 273/12/270 191/12/270 181/12/270
f 273/12/271 272/12/271 182/12/271 192/12/271
f 273/12/272 274/10/272 189/10/272 191/12/272
f 274/10/273 273/12/273 192/12/273 190/10/273
f 274/10/274 271/10/274 179/10/274 189/10/274
f 271/10/275 274/10/275 190/10/275 180/10/275
f 275/16/276 276/18/276 177/18/276 185/16/276
f 276/18/277 275/16/277 186/16/277 178/18/277
f 276/18/278 277/18/278 187/18/278 177/18/278
f 277/18/279 276/18/279 178/18/279 188/18/279
f 277/18/280 278/16/280 195/16/280 187/18/280
f 278/16/281 277/18/281 188/18/281 196/16/281
f 278/16/282 275/16/282 185/16/282 195/16/282
f 275/16/283 278/16/283 196/16/283 186/16/283
f 279/12/284 280/14/284 183/14/284 181/12/284
f 280/14/285 279/12/285 182/12/285 184/14/285
f 280/14/286 281/14/286 193/14/286 183/14/286
f 281/14/287 280/14/287 184/14/287 194/14/287
f 281/14/288 282/12/288 191/12/288 193/14/288
f 282/12/288 281/14/288 194/14/288 192/12/288
f 282/12/289 279/12/289 181/12/289 191/12/289
f 279/12/290 282/12/290 192/12/290 182/12/290
f 283/7/291 284/10/291 179/10/291 177/7/291
f 284/10/292 283/7/292 178/7/292 180/10/292
f 284/10/293 285/10/293 189/10/293 179/10/293
f 285/10/294 284/10/294 180/10/294 190/10/294
f 285/10/295 286/7/295 187/7/295 189/10/295
f 286/7/296 285/10/296 190/10/296 188/7/296
f 286/7/297 283/7/297 177/7/297 187/7/297
f 283/7/298 286/7/298 188/7/298 178/7/298
f 287/15/299 288/13/299 203/13/299 205/15/299
f 288/13/300 287/15/300 206/15/300 204/13/300
f 288/13/301 289/13/301 213/13/301 203/13/301
f 289/13/302 288/13/302 204/13/302 214/13/302
f 289/13/303 290/15/303 215/15/303 213/13/303
f 290/15/304 289/13/304 214/13/304 216/15/304
f 290/15/305 287/15/305 205/15/305 215/15/305
f 287/15/306 290/15/306 216/15/306 206/15/306
f 291/9/307 292/11/307 201/11/307 197/9/307
f 292/11/308 291/9/308 198/9/308 202/11/308
f 292/11/309 293/13/309 203/13/309 201/11/309
f 293/13/310 292/11/310 202/11/310 204/13/310
f 293/13/311 294/15/311 205/15/311 203/13/311
f 294/15/312 293/13/312 204/13/312 206/15/312
f 294/15/313 295/17/313 199/17/313 205/15/313
f 295/17/314 294/15/314 206/15/314 200/17/314
f 295/17/315 291/9/315 197/9/315 199/17/315
f 291/9/316 295/17/316 200/17/316 198/9/316
f 296/11/317 297/9/317 197/9/317 201/11/317
f 297/9/318 296/11/318 202/11/318 198/9/318
f 297/9/319 298/9/319 207/9/319 197/9/319
f 298/9/320 297/9/320 198/9/320 208/9/320
f 298/9/321 299/11/321 211/11/321 207/9/321
f 299/11/322 298/9/322 208/9/322 212/11/322
f 299/11/323 296/11/323 201/11/323 211/11/323
f 296/11/324 299/11/324 212/11/324 202/11/324
f 300/17/325 301/15/325 205/15/325 199/17/325
f 301/15/326 300/17/326 200/17/326 206/15/326
f 301/15/327 302/15/327 215/15/327 205/15/327
f 302/15/328 301/15/328 206/15/328 216/15/328
f 302/15/329 303/17/329 209/17/329 215/15/329
f 303/17/330 302/15/330 216/15/330 210/17/330
f 303/17/331 300/17/331 199/17/331 209/17/331
f 300/17/332 303/17/332 210/17/332 200/17/332
f 304/13/333 305/11/333 201/11/333 203/13/333
f 305/11/334 304/13/334 204/13/334 202/11/334
f 305/11/335 306/11/335 211/11/335 201/11/335
f 306/11/336 305/11/336 202/11/336 212/11/336
f 306/11/337 307/13/337 213/13/337 211/11/337
f 307/13/338 306/11/338 212/11/338 214/13/338
f 307/13/339 304/13/339 203/13/339 213/13/339
f 304/13/340 307/13/340 214/13/340 204/13/340
f 308/9/341 309/8/341 199/8/341 197/9/341
f 309/8/342 308/9/342 198/9/342 200/8/342
f 309/8/343 310/8/343 209/8/343 199/8/343
f 310/8/344 309/8/344 200/8/344 210/8/344
f 310/8/345 311/9/345 207/9/345 209/8/345
f 311/9/346 310/8/346 210/8/346 208/9/346
f 311/9/347 308/9/347 197/9/347 207/9/347
f 308/9/348 311/9/348 208/9/348 198/9/348
f 312/9/349 313/17/349 209/17/349 207/9/349
f 313/17/350 312/9/350 208/9/350 210/17/350
f 313/17/351 314/15/351 215/15/351 209/17/351
f 314/15/352 313/17/352 210/17/352 216/15/352
f 314/15/353 315/13/353 213/13/353 215/15/353
f 315/13/354 314/15/354 216/15/354 214/13/354
f 315/13/355 316/11/355 211/11/355 213/13/355
f 316/11/356 315/13/356 214/13/356 212/11/356
f 316/11/357 312/9/357 207/9/357 211/11/357
f 312/9/358 316/11/358 212/11/358 208/9/358
o Plane.010
v 22.163010 8.213085 -1.139872
v 22.163010 6.213085 -1.139872
v 21.939819 8.213085 -3.127379
v 21.939819 6.213085 -3.127379
vn 0.9938 -0.0000 -0.1116
vt 0.000000 0.000000
vt 1.000000 0.000000
vt 1.000000 1.000000
vt 0.000000 1.000000
s 0
usemtl Material.001
f 317/24/359 318/25/359 320/26/359 319/27/359
